<?xml version="1.0"?>
<svg xmlns="http://www.w3.org/2000/svg" xmlns:xlink="http://www.w3.org/1999/xlink" version="1.1" id="Capa_1" x="0px" y="0px" viewBox="0 0 512 512" style="enable-background:new 0 0 512 512;" xml:space="preserve" width="512px" height="512px" class=""><g><path style="fill:#E5E5E5;" d="M470.3,73.499L452,89.4v347c0,49.2-99.101,75-196,75s-196-25.8-196-75v-347L35.7,70.8l27.9-11.4  h384.8L470.3,73.499z" data-original="#E5E5E5" class=""/><path style="fill:#C8C6CD;" d="M470.3,73.499L452,89.4v347c0,49.2-99.101,75-196,75v-452h192.4L470.3,73.499z" data-original="#C8C6CD" class=""/><path style="fill:#0099FF" d="M316.901,116.101L256,111.9l-119.099-7.8c-3.9-0.3-8.101,1.199-11.102,4.2  c-2.999,2.699-4.799,6.6-4.799,10.8v166.3c0,24.899,20.099,45,45,45s45-20.101,45-45v-60c0-8.401,6.599-15,15-15s15,6.599,15,15v30  c0,13.2,5.7,25.199,15,33.3c7.8,7.2,18.3,11.7,30,11.7c24.901,0,45-20.101,45-45V131.1C331,123,325,116.399,316.901,116.101z" data-original="#00C7CE" class=""/><path style="fill:#5A5A5A;" d="M512,104.4v91c0,53.099-21.899,104.099-60,140.4c-6.301,6.301-12.9,11.999-20.099,17.1  C398,377.799,357.1,390.4,316,390.4c-19.799,0-39.901-3.3-60-9.3c-19.799,6-40.201,9.3-60,9.3c-41.1,0-82.301-12.9-115.901-37.5  c-7.2-5.101-13.799-10.8-20.099-17.1C21.899,299.499,0,248.499,0,195.4v-91c0-24.901,20.099-45,45-45h18.6  c-1.8,3.9-2.999,7.5-3.3,11.7C60,72,60,73.199,60,74.4v15H45c-8.401,0-15,6.599-15,15v91c0,34.2,10.499,67.2,30,94.499  c10.201,14.702,22.8,27.9,37.8,38.701c43.2,31.8,99.399,40.199,152.5,23.099c1.199-0.298,2.401-0.298,3.6-0.298  c0.901-0.3,1.5-0.3,2.1-0.3c1.8-0.3,3.3,0,5.099,0.599c53.401,17.1,109.9,8.701,153.1-22.798c15-11.102,27.9-24.3,37.8-39.3  c19.2-27.301,30-60.3,30-94.2v-91c0-8.401-6.599-15-15-15h-15v-15c0-1.201,0-2.401-0.3-3.3c-0.3-4.2-1.5-7.8-3.3-11.7H467  C491.901,59.4,512,79.5,512,104.4z" data-original="#5A5A5A" class=""/><path style="fill:#0082FF" d="M331,131.101v124.3c0,24.899-20.099,45-45,45c-11.7,0-22.2-4.501-30-11.7V111.9l60.901,4.2  C325,116.399,331,123,331,131.101z" data-original="#00B6BE" class=""/><path style="fill:#444444;" d="M512,104.4v91c0,53.099-21.899,104.099-60,140.4c-6.301,6.301-12.9,11.999-20.099,17.1  C398,377.799,357.1,390.4,316,390.4c-19.799,0-39.901-3.3-60-9.3v-30c1.8-0.3,3.3,0,5.099,0.599  c53.401,17.1,109.9,8.701,153.1-22.798c15-11.102,27.9-24.3,37.8-39.3c19.2-27.301,30-60.3,30-94.2v-91c0-8.401-6.599-15-15-15h-15  v-15c0-1.201,0-2.401-0.3-3.3c-0.3-4.2-1.5-7.8-3.3-11.7H467C491.901,59.4,512,79.5,512,104.4z" data-original="#444444" class=""/><path style="fill:#00B7FF" d="M256,0.6c-97.5,0-196,24.6-196,73.8s99.101,75,196,75s196-25.8,196-75S353.5,0.6,256,0.6z" data-original="#00DDC1" class="active-path"/><path style="fill:#B35C4B;" d="M286,330.4h-60c-24.901,0-45,20.099-45,45c0,24.899,20.099,45,45,45h60c24.901,0,45-20.101,45-45  C331,350.5,310.901,330.4,286,330.4z" data-original="#B35C4B"/><path style="fill:#A24F3D" d="M331,375.4c0,24.899-20.099,45-45,45h-30v-90h30C310.901,330.4,331,350.5,331,375.4z" data-original="#A24F3D" class=""/><path style="fill:#0099FF" d="M452,74.4c0,49.2-99.101,75-196,75V0.6C353.5,0.6,452,25.2,452,74.4z" data-original="#00C7CE" class=""/></g> </svg>
