<svg height="512pt" viewBox="0 -34 512 511" width="512pt" xmlns="http://www.w3.org/2000/svg"><path d="m512 65.328125v353.261719c0 9.730468-5.410156 18.460937-14.128906 22.789062-3.609375 1.792969-7.480469 2.671875-11.320313 2.671875-5.429687 0-10.8125-1.761719-15.339843-5.199219l-51.851563-39.402343c-2.121094-1.609375-4.757813-2.5-7.429687-2.5h-347.179688c-35.699219 0-64.75-29.078125-64.75-64.828125v-266.792969c0-35.75 29.050781-64.828125 64.75-64.828125h382.5c35.699219 0 64.75 29.078125 64.75 64.828125zm0 0" fill="#005fe4"/><path d="m512 65.328125v353.261719c0 9.730468-5.410156 18.460937-14.128906 22.789062-3.609375 1.792969-7.480469 2.671875-11.320313 2.671875-5.429687 0-10.8125-1.761719-15.339843-5.199219l-51.851563-39.402343c-2.121094-1.609375-4.757813-2.5-7.429687-2.5h-156.507813v-396.449219h191.828125c35.699219 0 64.75 29.078125 64.75 64.828125zm0 0" fill="#0040a0"/><path d="m323.859375 257c0 8.289062-6.710937 15-15 15h-105.410156c-6.488281 0-12.390625-3.828125-15.039063-9.761719-2.640625-5.917969-1.550781-12.878906 2.78125-17.707031l64.230469-71.589844 21.648437-24.132812h-75.089843c-8.289063 0-15-6.71875-15-15 0-8.289063 6.710937-15 15-15h105.410156c6.488281 0 12.390625 3.832031 15.039063 9.75 2.640624 5.929687 1.550781 12.882812-2.78125 17.710937l-64.226563 71.601563-21.652344 24.128906h75.089844c8.289063 0 15 6.71875 15 15zm0 0" fill="#fff"/><path d="m151.492188 242h-33.214844l44.152344-49.210938c4.183593-4.664062 5.234374-11.378906 2.679687-17.097656-2.554687-5.722656-8.253906-9.421875-14.519531-9.421875h-64.800782c-8.285156 0-15 6.714844-15 15 0 8.285157 6.714844 15 15 15h33.214844l-44.140625 49.203125c-4.191406 4.664063-5.25 11.375-2.695312 17.101563 2.554687 5.726562 8.253906 9.429687 14.523437 9.429687h64.800782c8.285156 0 15-6.71875 15-15 0-8.285156-6.714844-15.003906-15-15.003906zm0 0" fill="#fff"/><g fill="#c5f4ff"><path d="m425.480469 242h-33.214844l44.140625-49.199219c4.1875-4.664062 5.246094-11.378906 2.691406-17.105469-2.550781-5.726562-8.253906-9.425781-14.523437-9.425781h-64.800781c-8.28125 0-15 6.714844-15 15 0 8.285157 6.71875 15 15 15h33.214843l-44.148437 49.210938c-4.183594 4.664062-5.234375 11.378906-2.683594 17.097656 2.558594 5.726563 8.257812 9.421875 14.523438 9.421875h64.800781c8.285156 0 15-6.714844 15-15s-6.714844-15-15-15zm0 0"/><path d="m323.859375 257c0 8.289062-6.710937 15-15 15h-53.4375v-30h53.4375c8.289063 0 15 6.71875 15 15zm0 0"/><path d="m319.648438 146.269531-64.226563 71.601563v-44.929688l21.648437-24.132812h-21.648437v-30h51.96875c6.488281 0 12.390625 3.832031 15.039063 9.75 2.640624 5.929687 1.550781 12.882812-2.78125 17.710937zm0 0"/></g></svg>