<svg id="Layer_1" data-name="Layer 1" xmlns="http://www.w3.org/2000/svg" viewBox="0 0 411.35 410.55"><defs><style>.cls-1{fill:#fefefe;}.cls-2{fill:#fbd942;}.cls-3{fill:#ececec;}.cls-4{fill:#f2ebcb;}.cls-5{fill:#f4ebc5;}.cls-6{fill:#f4edce;}.cls-7{fill:#eeeada;}.cls-8{fill:#583377;}.cls-9{fill:#d5d5d5;}.cls-10{fill:#fe4f9a;}</style></defs><title>coding</title><path class="cls-1" d="M101.6,372q0-88.8-.08-177.6c0-2.74.54-3.28,3.28-3.28q202.4.13,404.8,0c2.74,0,3.28.54,3.28,3.28q-.13,202,0,404c0,2.74-.54,3.28-3.28,3.28q-202.4-.13-404.8,0c-2.74,0-3.28-.54-3.28-3.28q.15-89.2.08-178.4c2.23.36,1.86,2.32,2.09,3.71,1.5,8.88,3.21,17.71,5.36,26.46A213.73,213.73,0,0,0,141.31,517,271.71,271.71,0,0,0,166.2,544.5C183.31,561,203,573.4,224.6,583c2.92,1.3,5.86,2.55,8.86,3.68A189.17,189.17,0,0,0,270.68,597a46.47,46.47,0,0,1,4.68,1,31.7,31.7,0,0,0,3.7.31,27.4,27.4,0,0,1,3,.59c1.45.17,2.91.09,4.37.14s3,.48,4.49.68c2.7.13,5.39,0,8.09.05,1.37,0,2.74,0,4.1,0,1.6,0,3.2,0,4.81,0,1.37.09,2.74,0,4.11,0,2.7,0,5.41.06,8.11,0,1.5-.19,3-.58,4.49-.68s2.92,0,4.38-.14a27,27,0,0,1,3-.59c1.24-.13,2.49-.06,3.71-.3,14.31-2.5,28.38-5.86,41.92-11.21,22.85-8.94,43.8-21.11,62.18-37.42a232.86,232.86,0,0,0,30-32.38,206.79,206.79,0,0,0,32.24-67,210.86,210.86,0,0,0-.3-109,24.1,24.1,0,0,1-.7-7.53c0-24.64-.4-49.28.14-73.91.36-16.19-8.26-27.72-27.43-27.9-13.72-.13-27.43,0-41.15,0a30.4,30.4,0,0,1-6.37-.33,10.5,10.5,0,0,1-3.52-1.81c-29.07-20.42-61.26-33.14-96.62-36-37.72-3.08-74.48,1.57-108.84,19-10.12,5.14-20.08,10.47-29.26,17.17a9.59,9.59,0,0,1-3.19,1.63c-8.65.79-17.32.13-26,.37-9.45.26-18.92-.67-28.35.72-12.34,1.83-20.51,11.07-20.55,23.64-.07,25.73,0,51.46,0,77.19a27.75,27.75,0,0,1-.6,7.55c-2.45,8.94-4.05,18-5.64,27.17C103.52,369.41,104,371.53,101.6,372Z" transform="translate(-101.52 -191.12)"/><path class="cls-2" d="M108.08,450.94c-2.29-9.95-4.63-19.88-5.8-30,0-.32-.45-.6-.68-.89q0-24,0-48c1.69-3,1.23-6.38,1.94-9.56,1.59-7.11,3-14.25,4.54-21.37,1.38-.25,1.45.88,1.7,1.71a15.37,15.37,0,0,1,.32,4.36q0,48.85-.07,97.71C110,446.93,111.26,449.74,108.08,450.94Z" transform="translate(-101.52 -191.12)"/><path class="cls-3" d="M108.08,450.94c1.2-1.07.67-2.5.67-3.76q0-51.17,0-102.35c0-1.26.53-2.69-.68-3.76a14.26,14.26,0,0,0,.74-5.49c0-26.79.06-53.58,0-80.37,0-11.18,9.05-23.08,22-24.1,18.23-1.43,36.46-.26,54.68-.69a18.88,18.88,0,0,1,7.79-1.35q112.34,0,224.69,0a18.88,18.88,0,0,1,7.79,1.35c16.26,0,32.52-.21,48.77,0,14,.22,23.77,5.9,27.39,19.58a19.55,19.55,0,0,1,.49,5.13q0,40.18,0,80.36a14.59,14.59,0,0,0,.7,5.5c-.24,4.51.66,8.94.65,13.46q-.15,41.52,0,83c0,4.51-.89,9-.65,13.46A233,233,0,0,1,489.26,487a190,190,0,0,1-18.71,30.56,26.84,26.84,0,0,1-4.75.52q-53.9,0-107.79,0c-1.2,0-2.39-.15-3.59-.12-25.06.27-50.11.07-75.17.11-7.46,0-14.93.18-22.39-.1-37.42.26-74.84,0-112.26.13a30.63,30.63,0,0,1-3.95-.52,183.15,183.15,0,0,1-12-18.11c-3.76-6.37-6.69-13.14-10.16-19.64-4.22-7.9-6.35-16.72-9.3-25.17C108.77,453.45,108.45,452.19,108.08,450.94Z" transform="translate(-101.52 -191.12)"/><path class="cls-2" d="M425.73,230.42c-1.33,0-2.66.12-4,.12H189.46c-1.33,0-2.66-.08-4-.12C204.61,216,226,206.25,248.83,199.14c24.88-7.76,50.46-8.7,75.94-6.8C361.9,195.1,395.68,208.16,425.73,230.42Z" transform="translate(-101.52 -191.12)"/><path class="cls-3" d="M324.84,600l-4.07.79c-2.77-.81-5.6-.17-8.39-.38-1.45.19-3-.42-4.36.4h-4.83c-1.39-.81-2.91-.21-4.35-.4-2.8.2-5.63-.43-8.4.38l-4.07-.79a6.41,6.41,0,0,0-4.71,0l-2.46-.76a4.47,4.47,0,0,0-4,0c-9.09-2.11-18.37-3.41-27.25-6.37-5.1-1.7-10.45-2.74-15.16-5.51,0-5.45,2.2-10.23,4.66-14.92,6.34-2.89,13.18-4.13,19.83-6q49.89-13.75,99.84-27.28c1.41-.38,2.8-.94,4.29-.41,1.94,1.07,2.44,3.1,3.06,4.94,4.48,13.3,9.25,26.49,13.64,39.82.41,1.23,1,2.5.26,3.83-7.56,3.88-15.8,5.76-23.94,7.86-6.1,1.57-12.31,2.7-18.48,4a4.47,4.47,0,0,0-4,0l-2.46.76A6.41,6.41,0,0,0,324.84,600Z" transform="translate(-101.52 -191.12)"/><path class="cls-2" d="M378.39,587.28l-16.8-48.09a113.21,113.21,0,0,1-7.67-20.91,1.67,1.67,0,0,1,.47-1.47q56.65,0,113.3-.09c1,0,2.18-.3,2.86.87C454.27,538.94,435,557.05,412,571A180.53,180.53,0,0,1,378.39,587.28Z" transform="translate(-101.52 -191.12)"/><path class="cls-2" d="M237.79,572.81l-5,14.47a197.85,197.85,0,0,1-58.52-34.17,221.07,221.07,0,0,1-33.64-35.51c.68-1.17,1.84-.88,2.86-.88q56.65,0,113.3.09c1.12,1.59.21,3.1-.29,4.54-5.53,15.92-11.07,31.84-16.44,47.81A7.22,7.22,0,0,1,237.79,572.81Z" transform="translate(-101.52 -191.12)"/><path class="cls-2" d="M503.09,451c-1.13-1.1-.65-2.52-.65-3.79q0-51.18,0-102.37c0-1.27-.48-2.69.65-3.79,5.24,20.46,8,41.21,7.2,62.36A227.76,227.76,0,0,1,503.09,451Z" transform="translate(-101.52 -191.12)"/><path class="cls-4" d="M290.43,600.77c2.8-1.65,5.85-.36,8.76-.75q.4.25.27.5t-.27.25Z" transform="translate(-101.52 -191.12)"/><path class="cls-4" d="M312,600c2.91.39,6-.9,8.76.75H312q-.4-.25-.27-.5C311.83,600.1,311.92,600,312,600Z" transform="translate(-101.52 -191.12)"/><path class="cls-5" d="M281.65,600a3.6,3.6,0,0,1,4.71,0Z" transform="translate(-101.52 -191.12)"/><path class="cls-5" d="M324.84,600a3.6,3.6,0,0,1,4.71,0Z" transform="translate(-101.52 -191.12)"/><path class="cls-6" d="M275.23,599.16a2.69,2.69,0,0,1,4,0Z" transform="translate(-101.52 -191.12)"/><path class="cls-6" d="M332,599.19a2.69,2.69,0,0,1,4,0Z" transform="translate(-101.52 -191.12)"/><path class="cls-7" d="M299.19,600.77q0-.38,0-.75c1.35.18,2.87-.54,4,.77Z" transform="translate(-101.52 -191.12)"/><path class="cls-7" d="M312,600q0,.38,0,.75l-4,0C309.14,599.47,310.66,600.19,312,600Z" transform="translate(-101.52 -191.12)"/><path class="cls-8" d="M305.63,465.87H137.25a35.82,35.82,0,0,1-5.18-.24c-3.58-.53-5.67-2.78-6.35-6.25a23,23,0,0,1-.2-4.38q0-98.18,0-196.37c0-8.82,2.49-11.27,11.49-11.27H474.15c9.15,0,11.54,2.41,11.54,11.62q0,97.78,0,195.57c0,9.13-2.2,11.34-11.29,11.34Z" transform="translate(-101.52 -191.12)"/><path class="cls-9" d="M237.79,572.81q9.33-27.23,18.65-54.46c.17-.5.25-1,.37-1.53h97.59c1.92,7.61,5.62,14.66,7.19,22.38-12.65,3.39-25.32,6.74-38,10.18q-32.58,8.87-65.14,17.82Q248.14,570,237.79,572.81Z" transform="translate(-101.52 -191.12)"/><path class="cls-10" d="M279.79,416.82c-7.62-.14-11.46-5.91-8.76-11.79,4.88-10.65,10.11-21.14,15.23-31.67q19.23-39.51,38.52-79c2.48-5.07,5.55-6.49,10.23-4.94,5.61,1.86,7.61,6.47,5,12-3.1,6.63-6.36,13.19-9.57,19.77Q308.52,366.09,286.61,411C284.88,414.51,282.58,416.85,279.79,416.82Z" transform="translate(-101.52 -191.12)"/><path class="cls-10" d="M261.57,342.15c-.06,3.47-1.74,5.64-4.4,7.34-7.74,4.94-15.38,10.05-23.15,15-2.34,1.48-2.37,2.27,0,3.76,7.89,5,15.69,10.07,23.48,15.19,4.58,3,5.34,7.88,2.13,12.83-3.34,5.15-8.35,6.78-12.89,3.87-12.67-8.12-25.35-16.22-37.84-24.61-7.62-5.11-7.65-13.16,0-18.3,12.13-8.2,24.55-16,36.77-24,3.18-2.1,6.19-2.82,9.64-.78A11.92,11.92,0,0,1,261.57,342.15Z" transform="translate(-101.52 -191.12)"/><path class="cls-10" d="M360.54,331.1a6.12,6.12,0,0,1,3.88,1.39c12.5,8.13,25.1,16.11,37.51,24.39,8.18,5.45,8.05,13.57-.18,19-12.21,8.09-24.52,16-36.82,24-4.84,3.12-9.81,1.72-13.28-3.54-3.35-5.08-2.55-9.9,2.3-13.08q11.18-7.35,22.45-14.57c3.62-2.33,3.65-2.32-.12-4.78-7.25-4.73-14.51-9.43-21.76-14.16-4.54-3-5.7-5.81-4.3-10.34C351.66,334.69,356.11,331.06,360.54,331.1Z" transform="translate(-101.52 -191.12)"/></svg>