<?xml version="1.0" encoding="iso-8859-1"?>
<!-- Generator: Adobe Illustrator 19.0.0, SVG Export Plug-In . SVG Version: 6.00 Build 0)  -->
<svg version="1.1" id="Capa_1" xmlns="http://www.w3.org/2000/svg" xmlns:xlink="http://www.w3.org/1999/xlink" x="0px" y="0px"
	 viewBox="0 0 512 512" style="enable-background:new 0 0 512 512;" xml:space="preserve">
<path style="fill:#FFB655;" d="M511.088,234.235c-5.03-60.175-30.884-116.07-74.073-159.26c-0.451-0.461-0.912-0.912-1.373-1.363
	c-11.925-11.754-24.801-22.196-38.46-31.265C355.666,14.791,306.976,0,256,0c-6.574,0-13.117,0.251-19.611,0.742
	c-2.786,0.2-5.572,0.461-8.347,0.762c-41.396,4.459-80.597,18.829-114.838,41.927c-9.67,6.524-18.949,13.748-27.757,21.655
	c-3.567,3.177-7.055,6.483-10.462,9.89C30.192,119.778,4.038,178.239,0.431,240.979C0.14,245.959,0,250.97,0,256
	c0,68.382,26.635,132.665,74.985,181.015S187.618,512,256,512s132.665-26.635,181.015-74.985C485.375,388.665,512,324.382,512,256
	C512,248.695,511.699,241.43,511.088,234.235z M256.421,317.517c-0.14,0-0.281,0-0.421-0.01
	c-33.91-0.22-61.417-27.868-61.417-61.828c0-0.711,0.01-1.423,0.04-2.124c1.122-32.978,28.178-59.493,61.377-59.704
	c0.14-0.01,0.281-0.01,0.421-0.01c31.676,0,57.86,23.93,61.417,54.663c0.281,2.355,0.421,4.75,0.421,7.175
	C318.259,289.78,290.521,317.517,256.421,317.517z"/>
<path style="fill:#EE8700;" d="M512,256c0,68.382-26.625,132.665-74.985,181.015C388.665,485.365,324.382,512,256,512V317.507
	c0.14,0.01,0.281,0.01,0.421,0.01c34.101,0,61.838-27.737,61.838-61.838c0-2.425-0.14-4.82-0.421-7.175
	c-3.557-30.734-29.742-54.663-61.417-54.663c-0.14,0-0.281,0-0.421,0.01V0c50.976,0,99.666,14.791,141.182,42.348
	c13.658,9.069,26.535,19.51,38.46,31.265c0.461,0.451,0.922,0.902,1.373,1.363c43.189,43.189,69.043,99.085,74.073,159.26
	C511.699,241.43,512,248.695,512,256z"/>
<path style="fill:#FFF3E3;" d="M511.088,234.235h-26.144c-1.132,0-2.265,0.1-3.357,0.291c-9.199,1.603-15.883,9.57-15.883,18.939
	v53.19c0,27.176-22.106,49.292-49.292,49.292c-27.176,0-49.292-22.116-49.292-49.292v-53.19c0-10.602-8.628-19.23-19.24-19.23
	c-0.411,0-0.812-0.03-1.212-0.06c-0.511,0.06-1.042,0.09-1.573,0.09c-4.129,0.361-18.097,6.163-27.256,14.239
	c-3.557-30.734-29.742-54.663-61.417-54.663c-0.14,0-0.281,0-0.421,0.01c-33.199,0.21-60.255,26.725-61.377,59.704
	c-9.83-10.291-25.152-12.536-29.2-12.536c-0.571,0-1.122-0.04-1.683-0.1c-0.411,0.03-0.822,0.06-1.243,0.06
	c-10.602,0-19.23,8.628-19.23,19.23v18.118c0,27.176-22.116,49.292-49.292,49.292c-27.186,0-49.302-22.116-49.302-49.292v-18.118
	c0-9.56-7.125-17.747-16.564-19.049c-0.882-0.12-1.774-0.18-2.666-0.18H0.431c3.607-62.74,29.762-121.201,74.554-166.004
	c3.407-3.407,6.894-6.714,10.462-9.89c8.808-7.906,18.087-15.131,27.757-21.655c34.241-23.098,73.442-37.468,114.838-41.927
	c2.776-0.301,5.562-0.561,8.347-0.762C242.883,0.251,249.426,0,256,0c50.976,0,99.666,14.791,141.182,42.348
	c13.658,9.069,26.535,19.51,38.46,31.265c0.461,0.451,0.922,0.902,1.373,1.363C480.204,118.165,506.058,174.06,511.088,234.235z"/>
<path style="fill:#FCDFC8;" d="M511.088,234.235h-26.144c-1.132,0-2.265,0.1-3.357,0.291c-9.199,1.603-15.883,9.57-15.883,18.939
	v53.19c0,27.176-22.106,49.292-49.292,49.292c-27.176,0-49.292-22.116-49.292-49.292v-53.19c0-10.602-8.628-19.23-19.24-19.23
	c-0.411,0-0.812-0.03-1.212-0.06c-0.511,0.06-1.042,0.09-1.573,0.09c-4.129,0.361-18.097,6.163-27.256,14.239
	c-3.557-30.734-29.742-54.663-61.417-54.663c-0.14,0-0.281,0-0.421,0.01V0c50.976,0,99.666,14.791,141.182,42.348
	c13.658,9.069,26.535,19.51,38.46,31.265c0.461,0.451,0.922,0.902,1.373,1.363C480.204,118.165,506.058,174.06,511.088,234.235z"/>
<g>
	<path style="fill:#FF5252;" d="M115.25,203.127c-5.646,0-11.055-3.195-13.614-8.643l-21.269-45.268
		c-3.53-7.514-0.301-16.466,7.213-19.996c7.514-3.53,16.466-0.301,19.996,7.213l21.269,45.268c3.53,7.514,0.301,16.466-7.213,19.996
		C119.565,202.668,117.39,203.127,115.25,203.127z"/>
	<path style="fill:#FF5252;" d="M179.536,131.054c-2.579,0-5.193-0.664-7.58-2.062c-7.164-4.195-9.572-13.402-5.378-20.566
		l18.482-31.567c4.194-7.165,13.402-9.573,20.566-5.378c7.164,4.195,9.572,13.402,5.378,20.566l-18.481,31.568
		C189.725,128.393,184.698,131.054,179.536,131.054z"/>
	<path style="fill:#FF5252;" d="M297.494,144.522c-5.832,0-11.38-3.414-13.823-9.114l-21.442-50.033
		c-3.27-7.63,0.265-16.467,7.894-19.737c7.629-3.272,16.466,0.265,19.737,7.894l21.442,50.033c3.27,7.63-0.265,16.467-7.894,19.737
		C301.477,144.13,299.469,144.522,297.494,144.522z"/>
	<path style="fill:#FF5252;" d="M378.798,136.816c-4.08,0-8.146-1.65-11.112-4.904l-18.464-20.251
		c-5.594-6.135-5.155-15.641,0.98-21.235c6.135-5.594,15.641-5.155,21.235,0.98l18.464,20.251c5.594,6.135,5.155,15.641-0.98,21.235
		C386.04,135.52,382.413,136.816,378.798,136.816z"/>
	<path style="fill:#FF5252;" d="M393.008,198.236c-4.902,0-9.706-2.394-12.59-6.801c-4.546-6.945-2.601-16.263,4.344-20.808
		l32.76-21.442c6.945-4.547,16.263-2.602,20.808,4.344c4.546,6.945,2.601,16.263-4.344,20.808l-32.76,21.442
		C398.686,197.442,395.83,198.236,393.008,198.236z"/>
</g>
<g>
</g>
<g>
</g>
<g>
</g>
<g>
</g>
<g>
</g>
<g>
</g>
<g>
</g>
<g>
</g>
<g>
</g>
<g>
</g>
<g>
</g>
<g>
</g>
<g>
</g>
<g>
</g>
<g>
</g>
</svg>
