<svg id="Layer_1" data-name="Layer 1" xmlns="http://www.w3.org/2000/svg" viewBox="0 0 384.12 384.17"><defs><style>.cls-1{fill:#fee0bb;}.cls-2{fill:#83b7c7;}.cls-3{fill:#fefefe;}.cls-4{fill:#91bfce;}.cls-5{fill:#a9cdd8;}.cls-6{fill:#fef4e8;}.cls-7{fill:#fee8cb;}.cls-8{fill:#fef1e0;}.cls-9{fill:#fedaab;}.cls-10{fill:#fec880;}.cls-11{fill:#fed59d;}.cls-12{fill:#276372;}.cls-13{fill:#36899b;}.cls-14{fill:#fedbac;}.cls-15{fill:#0ab074;}.cls-16{fill:#029964;}.cls-17{fill:#ee3c54;}.cls-18{fill:#d33147;}.cls-19{fill:#80d3ad;}</style></defs><title>joystick</title><path class="cls-1" d="M498.75,501v6c-.77,1.25-.2,2.64-.38,4-.56,4.46.1,9.25-3.58,12.85-20-.25-35.74-8.47-46-25.8-8.34-14.06-15.66-28.71-23.49-43.07-1.79-3.29-3.72-6.5-5.38-9.86-4.05-8.19-10.68-12.63-19.79-13.38a15,15,0,0,1-3-.34,17.17,17.17,0,0,1-3.91-2.15c-11-7-22-6.74-33-.15-1.8,1.08-3.44,2.5-5.71,2.54a43.78,43.78,0,0,1-6,.43q-33.26,0-66.52,0a29.55,29.55,0,0,1-5.57-.39c-2.3.17-4-1.12-5.74-2.35-13-9.31-35.45-6.75-43.89,12.79-6.27,16.8,1.92,34,18.79,39.54,1.3.42,2.65.72,3.59,1.84.85,1.54.18,2.92-.54,4.23-5.83,10.56-11.4,21.26-17.29,31.78-.86,1.53-1.78,3-3.66,3.5-1.42.24-2.88,0-4.3.36-18.08-.73-31.58-9.36-41-24.45-6.42-10.3-8.26-21.62-7.12-33.81,1.53-16.4,3.17-32.81,4.1-49.26.19-3.36.76-6.7.84-10.08a5.19,5.19,0,0,1,1.48-3.74c2.28-1.34,3.78.42,5.36,1.48,6.6,4.44,13.6,7.93,21.51,9.32,34.85,6.15,63-17.85,66.6-48.21,3.87-32.5-19-58.27-47.52-62.48-9.95-1.47-19.38,0-28.71,3.25-1.73.61-3.38,1.77-5.37,1-1.39-1.56-.32-3,.23-4.46a86.44,86.44,0,0,1,12.31-21c7.59-3.71,15.78-4.73,24-4.76,45.46-.12,90.92-.06,136.39-.06,11,0,22-.21,33,0,22.82.54,42.44,9,59.32,24.27,5.41,4.89,9.44,10.93,14.37,16.21,9.21,14.9,15.21,30.8,15.78,48.56.34,10.47,1.61,20.89,2.46,31.34.87,10.69,1.83,21.38,2.69,32.07,1.09,13.43,2.46,26.83,3.22,40.29q.68,12.13,1,24.28,0,1.89,0,3.78C498.55,498.24,498,499.68,498.75,501Z" transform="translate(-114.69 -204.67)"/><path class="cls-2" d="M472.44,317.25c-2.78-1.86-4.13-4.94-6.25-7.36-16-18.39-36.1-29.27-60.35-32.21a90.69,90.69,0,0,0-10.86-.29q-79.68,0-159.37,0c-10.06,0-19.89,1.12-29.4,4.52a12.09,12.09,0,0,1-4.73,2.92q-47.86,20.33-56.42,71.64c-1.77,10.71-1.63,21.65-2.66,32.47-1.31,13.92-2.39,27.86-3.53,41.8-1.09,13.31-2.27,26.62-3.28,39.94-.19,2.48,0,5-1.84,7.09-2.18.4-2.79-1.36-3.38-2.73-7.7-17.9-14.05-36.17-14.93-55.91a24.05,24.05,0,0,0-.7-6.59v-3.75a7.83,7.83,0,0,0,0-5.25v-9.75a7.83,7.83,0,0,0,0-5.25V381c1.13-6,.64-12.13,1.78-18.14,6.48-34.21,21.13-64.54,44.21-90.49,32.07-36.06,72.09-58,120.22-63.3,53.95-5.93,102.14,8.78,143.95,43.63,19.67,16.39,34.8,36.41,46.57,59C472.34,313.41,473.88,315.11,472.44,317.25Z" transform="translate(-114.69 -204.67)"/><path class="cls-3" d="M472.44,317.25a156.93,156.93,0,0,0-21.23-35.13C422.36,245.24,385,221.6,339.09,212.64,290.6,203.18,244.9,211.46,203,238c-38.09,24.11-64.32,57.82-78.9,100.51a185.8,185.8,0,0,0-8.56,40.17c-.09.83.14,1.79-.81,2.34q0-86.59-.06-173.17c0-2.4.26-3.16,3-3.16q189.1.14,378.21,0c2.83,0,2.92.92,2.92,3.21q-.09,142.81-.05,285.62c-.25.39-.48.4-.7,0-1.23-14.37-2.49-28.74-3.67-43.11-.85-10.41-1.54-20.84-2.41-31.25s-1.91-21-2.82-31.58c-.59-6.82-1.48-13.64-1.54-20.46-.16-15.88-4.7-30.43-12.29-44.19C474.3,321,473.39,319.13,472.44,317.25Z" transform="translate(-114.69 -204.67)"/><path class="cls-3" d="M114.75,412.5c2,5.64,1.82,11.65,2.9,17.45a194.88,194.88,0,0,0,14,44.68c.51,1.12,1.21,2.14,1.82,3.21,2.48,2.39,3.59,5.63,5.18,8.54,12.76,23.3,30,42.71,50.82,59.06a43.72,43.72,0,0,0,7.8,5.09,178.63,178.63,0,0,0,58.33,26.64c41.77,10.48,82.57,7.4,122.13-9.75a178.59,178.59,0,0,0,36.2-21.12c1.59-1.19,3.07-2.6,5.12-3,1.61-.12,2.83.8,4.11,1.56a49,49,0,0,0,67.45-16.77c1-1.67,1.69-3.66,3.69-4.55A38.27,38.27,0,0,0,498,510.78q.33-.71.72,0c0,25.13,0,50.25.06,75.37,0,2.24-.45,2.69-2.69,2.69q-189.37-.1-378.75,0c-2.76,0-2.66-1.06-2.66-3.08Q114.78,499.13,114.75,412.5Z" transform="translate(-114.69 -204.67)"/><path class="cls-4" d="M114.75,388.5a4.41,4.41,0,0,1,0,5.25Z" transform="translate(-114.69 -204.67)"/><path class="cls-5" d="M114.75,403.5a4.39,4.39,0,0,1,0,5.25Z" transform="translate(-114.69 -204.67)"/><path class="cls-6" d="M498.05,493.47l.7,0v3.75q-.39.68-.73,0Z" transform="translate(-114.69 -204.67)"/><path class="cls-7" d="M498,497.22l.73,0V501C497.6,499.92,498.11,498.51,498,497.22Z" transform="translate(-114.69 -204.67)"/><path class="cls-8" d="M498.75,510.75l-.72,0c.06-1.29-.41-2.68.72-3.78Z" transform="translate(-114.69 -204.67)"/><path class="cls-2" d="M419.15,543.78a179.29,179.29,0,0,1-80.4,37.2c-49.1,9.15-95.05.57-137.43-26.12-1.8-1.13-4.25-1.71-4.9-4.25.51-1.16,1.62-1.51,2.65-1.91,11.92-4.61,20.68-12.72,26.65-23.94a5.48,5.48,0,0,1,1.58-2.05,8.28,8.28,0,0,1,.87-.63c3.69-4.74,6-10.29,8.83-15.51,4.1-7.53,8.55-14.88,12-22.74,1.36-1.71,3.32-1.42,5.12-1.43a32,32,0,0,0,9.49-1.15c8.92-2.91,14.79-9,18.14-17.63.67-1.73,1-3.73,3.53-3.78,20.11-.12,40.2-.2,60.29,0,2.62.12,3,2.34,3.66,4.12,3.62,9.24,10.42,14.9,19.76,17.78a22.87,22.87,0,0,0,6.64.72,13.73,13.73,0,0,1,5.16.55c2.09,1.15,3,3.23,4.09,5.2q10.16,19.14,20.66,38.1a45.47,45.47,0,0,0,11.17,13.89C417.88,541.14,419.15,542,419.15,543.78Z" transform="translate(-114.69 -204.67)"/><path class="cls-9" d="M228,522.75a50.36,50.36,0,0,1-29.39,27.43,13.09,13.09,0,0,1-2.17.42c-4.28.24-6.5-3.28-9.24-5.45-19-15.08-35-32.9-47.18-54-2.46-4.26-5.65-8.26-6.53-13.33q1.93-22.7,3.86-45.39c1.42-16.37,2.93-32.73,4.34-49.1.84-9.8.54-19.72,2.41-29.39,6.78-35.24,27.14-59.14,60.68-71.84a7.68,7.68,0,0,1,1.47-.25c-2.45,4.12-4.85,8.27-7.37,12.35A65.24,65.24,0,0,0,193.5,306c.17,2-1.54,2.39-2.73,3.13-15.37,9.5-24.66,23.13-27,41-2.3,17.43,2.56,32.81,14.61,45.81,1.61,1.73,4.21,2.92,3.9,6-1.42,3.94-.85,8.13-1.31,12.19-1.2,10.59-1.6,21.27-2.47,31.91-.59,7.29-1.64,14.54-2.12,21.83A50.24,50.24,0,0,0,187,503.13c7.85,10.09,18.13,16.08,30.58,18.47a46.78,46.78,0,0,0,5.94.4C224.87,523,226.6,521.8,228,522.75Z" transform="translate(-114.69 -204.67)"/><path class="cls-10" d="M182.25,402c-6-6.2-11.54-12.58-15.3-20.57-9.07-19.25-5.43-44.93,8.61-61C180.75,314.44,186.9,310,193.5,306c8.1-3.37,16.46-5.94,25.27-5.94,28.47,0,52.86,20,57.4,48.39,3.93,24.6-8.6,50.07-31,60.57-21,9.84-41.33,8-60.34-5.66A5.26,5.26,0,0,0,182.25,402Z" transform="translate(-114.69 -204.67)"/><path class="cls-11" d="M419.15,543.78c-8.26-5.92-13.43-14.23-18.09-23-6.54-12.35-13.27-24.59-19.92-36.87,1.33-2.43,4.13-1.72,6.08-2.84,17.5-7.33,22.69-25.92,16.16-40a35.18,35.18,0,0,0-4.42-6.93c-.83-1-2-2-1.54-3.6,11.18-.36,18.75,4.78,24,14.6,9.94,18.59,19.13,37.64,30.49,55.39C460.3,513.64,473,521.08,489,522a9.73,9.73,0,0,1,5.3,1.49c-7.85,16.92-21.12,26.59-39.49,29.2C441.74,554.58,430,551,419.15,543.78Z" transform="translate(-114.69 -204.67)"/><path class="cls-10" d="M410.89,407.27c-26.73.68-49.81-22.64-49.53-49.79.26-25.8,20.44-49.58,49.48-49.66,28.6-.07,50.34,21.63,50.12,50.48A49.21,49.21,0,0,1,410.89,407.27Z" transform="translate(-114.69 -204.67)"/><path class="cls-11" d="M346.8,460.68c-1,.73-2.14.56-3.24.56q-28.17,0-56.34,0c-1.1,0-2.26.2-3.22-.59-1.07-1.14-.83-2.52-.66-3.87,1-7.94-1.53-14.88-6-21.27-1.05-1.49-2.56-2.77-2.38-4.86l80.82-.06c.24,1.69-.9,2.8-1.8,3.93a31.41,31.41,0,0,0-5.1,9c-.92,4.62-2.17,9.2-1.3,14A3.5,3.5,0,0,1,346.8,460.68Z" transform="translate(-114.69 -204.67)"/><path class="cls-12" d="M264.72,482.16c-5.06,2.16-10.4,1.79-15.7,1.66-13.39-3.07-22.13-11-25.05-24.59a26.54,26.54,0,0,1,1.86-17.47c1.68,0,1.75,1.54,2.38,2.52,2.51,3.87,6.67,4.21,9.59.57,2.28-2.84,4.51-5.61,7.88-7.29A18.15,18.15,0,0,1,269.34,444c4.79,7.45,3,17.78-4.14,23.63-.87.71-1.84,1.3-2.66,2.06-3.36,3.09-3.17,6.64.43,9.45C263.93,479.87,265.72,480.24,264.72,482.16Z" transform="translate(-114.69 -204.67)"/><path class="cls-13" d="M264.72,482.16c-.1-.86-.71-1.15-1.43-1.5-5.93-2.93-6.4-8.86-.88-12.56,5.1-3.42,8.2-7.9,8.33-14.13.16-7.72-4.3-14.14-11.21-16.34-7.7-2.45-15.14.05-19.66,6.61-3.36,4.88-6.93,5.88-10.87,3.23-2.1-1.41-2.12-3.82-3.17-5.73,3.92-11.43,16-19.25,29-19,7.73.16,14.23,3.17,20.12,7.86,8.08,8.47,11.62,18.31,9.07,30C281.11,471,275.06,478.49,264.72,482.16Z" transform="translate(-114.69 -204.67)"/><path class="cls-13" d="M348.13,442.46c1.26-4.78,4.52-8.27,7.61-11.87,10.05-8,21-10.11,33.16-5.34,3.16,1.25,5.79,3.35,8.52,5.28,10.1,10.6,13,22.67,6.86,36.23A27.55,27.55,0,0,1,387.72,482a7.58,7.58,0,0,1-7.39-6.25c-.88-3.62.92-6.25,3.65-8.38.88-.69,1.82-1.31,2.68-2a15.53,15.53,0,0,0,1.38-22.4,15.33,15.33,0,0,0-22.36-.18c-1.41,1.42-2.55,3.08-3.94,4.51-2.24,2.3-4.88,3.63-8.08,2.41S348.14,446.26,348.13,442.46Z" transform="translate(-114.69 -204.67)"/><path class="cls-14" d="M228,522.75c-1.5-.19-3.15.51-4.47-.74l4.66.06Q228.08,522.41,228,522.75Z" transform="translate(-114.69 -204.67)"/><path class="cls-12" d="M348.13,442.46c.34.52.71,1,1,1.55,3.65,6.45,8.75,6.76,13.08.79,6.18-8.52,15.36-10.66,23.45-5.46a16.71,16.71,0,0,1,.49,28l-1.53,1.07c-4.93,3.52-4.5,9.5.93,12.25a5.14,5.14,0,0,1,2.17,1.35l-6.59,1.92c-7.18.43-14.1-.32-20.41-4.23a31.13,31.13,0,0,1-13.93-19A29.9,29.9,0,0,1,348.13,442.46Z" transform="translate(-114.69 -204.67)"/><path class="cls-15" d="M228.78,324.71c12,2.82,19.43,10.66,23.42,21.86,6.55,18.38-4.35,39.2-22.75,44-4.21-.42-8.19-1.21-9.9-5.86a3.89,3.89,0,0,1,2.62-1.24,6.32,6.32,0,0,0,2.4-1,2.59,2.59,0,0,0,1-3.3c-1.39-3-2.34-6.48-5.78-7.81-1.66-.65-2.49,1.15-3.48,2.24-1.4,1.55-1.41,4.47-4.38,4.47a25.17,25.17,0,0,1-6.69-16.9c1.18-2.57.39-5.06-.31-7.57,1.24-5.92,2-12,7-16.37,2.59-.07,3,2.26,4.08,3.8,2.71,3.91,4.63,3.88,7.13-.27.32-.53.61-1.09.91-1.64,2.91-5.21,2.63-5.89-3.16-7.58a2.7,2.7,0,0,1-1.25-.78c-.08-3.41,3-3.69,5-5A8.09,8.09,0,0,1,228.78,324.71Z" transform="translate(-114.69 -204.67)"/><path class="cls-16" d="M206.24,360.7c-.05,6.48,3.29,11.78,6,17.29,0,5,4.43,5.14,7.48,6.78,2.58,3,6.37,4.07,9.72,5.83a34.26,34.26,0,0,1-37.62-12.42,34.45,34.45,0,0,1,35.6-54.08,7.25,7.25,0,0,1,1.34.61c-2.64,2.56-6.87,2.68-9.06,5.94-.23.46-.6.89-1.07.89-3.91.05-5.81,2.23-6.36,5.89-3.71,5-4.78,11-6.9,16.64-2.41,1.08-3.92-.89-5.69-1.79-3.92-2-5.47-1.15-5.71,3.26-.06,1.11,0,2.23,0,3.35.09,5.12,1.84,6.08,6.51,3.69C202.29,361.66,203.84,359.86,206.24,360.7Z" transform="translate(-114.69 -204.67)"/><path class="cls-17" d="M414,315.88a15.33,15.33,0,0,1,12.68,14.77c.19,7-4.83,13.24-12,15-6.63-2.29-10.47-7.27-10.88-14.09C403.47,325.29,407.57,319,414,315.88Z" transform="translate(-114.69 -204.67)"/><path class="cls-17" d="M441.71,342.88A15.18,15.18,0,0,1,441,372.6c-9.59-3.42-12.75-14.87-8.17-22.91C434.84,346.17,437.6,343.65,441.71,342.88Z" transform="translate(-114.69 -204.67)"/><path class="cls-17" d="M388.43,342.93c7.26,2.25,11.54,8,11.31,15.28-.22,7.06-4.87,12.6-12,14.31-9.94-3.18-14.07-15.31-7.31-24.74A11.27,11.27,0,0,1,388.43,342.93Z" transform="translate(-114.69 -204.67)"/><path class="cls-17" d="M415.43,369.88c6.81,1.89,11.7,8.54,11.24,15.28-.48,7-5.73,13.14-11.91,13.85-5.63,0-11.47-8.53-10.88-15.64S409.29,370.73,415.43,369.88Z" transform="translate(-114.69 -204.67)"/><path class="cls-18" d="M415.43,369.88c-8.73,4.41-12.1,11.23-9.53,19.41,1.44,4.59,5.09,7.23,8.86,9.72-7.45,2.48-15.65-2-18.2-9.88a15.3,15.3,0,0,1,10.07-19.3A13.76,13.76,0,0,1,415.43,369.88Z" transform="translate(-114.69 -204.67)"/><path class="cls-18" d="M388.43,342.93c-4.82,2.64-8.64,6-9.77,11.81-1.33,6.86,1.41,11.74,6.68,15.65.87.64,2.15.79,2.4,2.13-8.68,1.15-15.41-2.56-17.94-9.9a15.26,15.26,0,0,1,7.05-18.33A15.05,15.05,0,0,1,388.43,342.93Z" transform="translate(-114.69 -204.67)"/><path class="cls-18" d="M414,315.88c-.36,1.66-1.92,2.23-3,3.1a15.08,15.08,0,0,0,1.77,25,16.85,16.85,0,0,1,2,1.61c-6.82,1.44-12.41-.61-16.29-6.36A14.33,14.33,0,0,1,398,323C401.62,317,407.14,314.82,414,315.88Z" transform="translate(-114.69 -204.67)"/><path class="cls-18" d="M441.71,342.88c-5.12,3.23-9.36,7.09-9.7,13.7a14.53,14.53,0,0,0,6.74,13.68c.89.6,2.07,1,2.25,2.34a15.27,15.27,0,0,1-9.5-28.83A15.11,15.11,0,0,1,441.71,342.88Z" transform="translate(-114.69 -204.67)"/><path class="cls-19" d="M219.74,384.77l-3-.15c-4.54-.26-5.84-2.19-4.49-6.63,1.3-2.1,2.51-4.26,3.94-6.27,1.87-2.64,4.51-2.74,6.45-.15a47.32,47.32,0,0,1,3.65,6c2.19,4.08.7,6.67-4,7C221.47,384.7,220.6,384.73,219.74,384.77Z" transform="translate(-114.69 -204.67)"/><path class="cls-19" d="M212.29,337.43c-1.44-4.79-.17-6.51,4.87-6.64.85,0,1.7-.09,2.56-.14,8.51.51,9.36,2.11,5.1,9.57-.55,1-1,2-1.65,2.9-2.24,3.3-5.18,3.28-7.34-.06C214.63,341.21,213.47,339.31,212.29,337.43Z" transform="translate(-114.69 -204.67)"/><path class="cls-19" d="M206.24,360.7c-2.27,1.28-4.5,2.63-6.82,3.82-4,2.06-6.58.58-6.69-3.84-.05-2.23-.11-4.48,0-6.71.21-3.74,2.86-5.24,6.16-3.52,2.19,1.15,4.33,2.41,6.49,3.62C207.54,356,208.07,358.22,206.24,360.7Z" transform="translate(-114.69 -204.67)"/><path class="cls-19" d="M246.15,357.94c0,.75,0,1.49,0,2.24-.08,5.13-2.73,6.6-7.24,4a59.36,59.36,0,0,1-5.09-3.1c-2.93-2.1-2.91-5,0-6.94A68,68,0,0,1,240,350.6c3.76-1.94,6-.61,6.16,3.61C246.19,355.46,246.14,356.7,246.15,357.94Z" transform="translate(-114.69 -204.67)"/></svg>