<svg id="Layer_1" data-name="Layer 1" xmlns="http://www.w3.org/2000/svg" viewBox="0 0 512.2 512.19"><defs><style>.cls-1{fill:#fefefe;}.cls-2{fill:#304b81;}.cls-3{fill:#314b82;}.cls-4{fill:#40598b;}.cls-5{fill:#3f588b;}.cls-6{fill:#455d8e;}.cls-7{fill:#4e6594;}.cls-8{fill:#3d5689;}.cls-9{fill:#3e578a;}.cls-10{fill:#9ba8c2;}.cls-11{fill:#98a5c1;}.cls-12{fill:#8c9bb9;}.cls-13{fill:#8a99b8;}.cls-14{fill:#a5b1c8;}.cls-15{fill:#99a7c1;}.cls-16{fill:#2f373b;}.cls-17{fill:#151a1c;}.cls-18{fill:#f1eee9;}.cls-19{fill:#dfdedd;}.cls-20{fill:#fecf73;}.cls-21{fill:#d7d3cd;}.cls-22{fill:#4d5051;}.cls-23{fill:#d8d4cc;}.cls-24{fill:#d7d2cc;}.cls-25{fill:#c82887;}.cls-26{fill:#fecf72;}.cls-27{fill:#fd9b40;}.cls-28{fill:#fc9b40;}.cls-29{fill:#161b1d;}.cls-30{fill:#f66cad;}.cls-31{fill:#31383b;}</style></defs><title>piano</title><path class="cls-1" d="M285,653q-115,0-230,.1c-3.42,0-4.1-.67-4.1-4.1q.19-115,.1-230c3,.59,2.45,3.23,2.73,5.11,1.25,8.49,2.27,17,4.12,25.4C60.94,466.28,66.35,482.34,73,498c4.51,11.61,10.77,22.32,17,33.07a202.11,202.11,0,0,0,24.36,33.21,19.92,19.92,0,0,0,3.27,4.14q2.06,2.15,4.23,4.2c5.44,5.49,10.81,11.05,16.91,15.84a191.56,191.56,0,0,0,16.46,13.08c23,16.72,47.9,29.82,75.12,38.31a250.59,250.59,0,0,0,46.7,10C279.79,650.13,283.37,649.33,285,653Z" transform="translate(-50.9 -140.9)"/><path class="cls-1" d="M563,419q0,115,.1,230c0,3.42-.67,4.1-4.1,4.1q-115.5-.19-231-.1c.26-2.71,2.6-2.21,4.17-2.45,7.74-1.17,15.52-2,23.21-3.49,38-7.29,72.34-22.68,103.44-45.51a188.72,188.72,0,0,0,16.51-13.12c6.21-4.86,11.67-10.51,17.15-16.15,12-12.82,23.22-26.3,31.84-41.72,6.19-10.51,12.24-21.08,16.65-32.5a238.73,238.73,0,0,0,15.16-48.51c1.91-8.39,2.83-16.94,4.12-25.43C560.55,422.23,560,419.59,563,419Z" transform="translate(-50.9 -140.9)"/><path class="cls-1" d="M51,375q0-114.88-.1-229.75c0-3.6.74-4.35,4.34-4.34q115.38.19,230.75.1c-.49,2.85-2.94,2.23-4.69,2.45-18.72,2.38-37.14,6.05-55.08,12a277,277,0,0,0-46.85,21.16,33.29,33.29,0,0,1-4.93,2.44c-7.93,2.48-16.21,1.62-24.3,2.13-15.93,1-31.85,2.31-47.77,3.41-18.73,1.3-33.57,15.74-35.64,34.73-2.79,25.64-5,51.32-6.39,77.09-.82,15.11-1.48,30.23-2.27,45.34-1.23,8-2.75,16-3.8,24.1C53.87,369,55,373,51,375Z" transform="translate(-50.9 -140.9)"/><path class="cls-1" d="M327,141q115.88,0,231.75-.1c3.6,0,4.35.74,4.34,4.34Q562.9,261.12,563,377c-2.81-.51-2.23-2.92-2.46-4.7-1.26-9.86-2.61-19.7-4.6-29.44-.87-8.94-.84-17.94-1.23-26.9-1.4-32.26-4-64.42-7.42-96.51-2.08-19.48-18-33.71-37.59-35.06-17.08-1.18-34.19-2.12-51.24-3.73-6.27-.59-12.69.64-18.84-1.53-11.23-5.72-22.13-12.11-33.81-17a269.16,269.16,0,0,0-74.12-18.79C329.92,143.18,327.52,143.83,327,141Z" transform="translate(-50.9 -140.9)"/><path class="cls-2" d="M460,602.1a251.53,251.53,0,0,1-123.09,49.12c-3,.35-6.25-.25-8.93,1.78h-4a2.28,2.28,0,0,0-3,0h-6a7.64,7.64,0,0,0-6,0h-4a10.23,10.23,0,0,0-7,0h-5a2.28,2.28,0,0,0-3,0h-5c-4.65-2.5-9.89-2-14.84-2.7a253.62,253.62,0,0,1-111.41-44.67c-1.61-1.14-3.17-2.36-4.76-3.54a4.49,4.49,0,0,1,4.1-1.36c14.6,1.23,29.24,1.72,43.86,2.28,16.63.63,33.28,1.12,49.91,1.57,24.15.66,48.29.7,72.43.84a14.89,14.89,0,0,1,4.44.51,3.79,3.79,0,0,1,2.53,3.38c2.11,12.9,11.22,18.6,22.62,21.63a44.38,44.38,0,0,0,32.85-3.86c6.82-3.56,11.56-8.78,12.57-16.83.28-2.18,0-4.8,2.53-6.16a102.88,102.88,0,0,1,16.32-1.48c12.44-.41,24.85-1.12,37.26-1.86C457.1,600.67,458.78,600.65,460,602.1Z" transform="translate(-50.9 -140.9)"/><path class="cls-2" d="M327,141c6.08,2.24,12.56,1.92,18.84,2.9a255.74,255.74,0,0,1,92.54,33.35,3.53,3.53,0,0,1,.67.71c-3.39,2.64-7.43,2-11.06,1.46-11.1-1.51-22.28-1.12-33.39-1.54-46.74-1.8-93.52-1.88-140.28-1-21.75.41-43.56.62-65.29,2.55-4.63.41-9.65,1.51-14.07-1.44,23.65-15,49.4-24.72,76.57-30.93a265.08,265.08,0,0,1,31.44-5c1.06-.11,2.41.42,3-1.06h4a1.3,1.3,0,0,0,2,0h4a7.65,7.65,0,0,0,6,0h10a7.65,7.65,0,0,0,6,0h4a1.3,1.3,0,0,0,2,0Z" transform="translate(-50.9 -140.9)"/><path class="cls-3" d="M557.24,342.87A270.37,270.37,0,0,1,562,373.5c.13,1.19-.59,2.71,1,3.5v4a1.3,1.3,0,0,0,0,2v5a7.65,7.65,0,0,0,0,6v5a10.23,10.23,0,0,0,0,7v6a1.3,1.3,0,0,0,0,2v5c-2.49,5.29-1.67,11.16-2.91,16.68-1.08,4.8-1.26,9.78-3,14.45-2.31-2.31-1.83-5.3-1.67-8,1.47-25.44.81-50.89.94-76.34a103.62,103.62,0,0,0-.69-15.44C555.32,347.75,554.87,345,557.24,342.87Z" transform="translate(-50.9 -140.9)"/><path class="cls-2" d="M51,375c2.46-5.35,1.68-11.27,2.92-16.84,1.18-5.33,2-10.75,2.94-16.13,1.87,1.65,1.79,3.89,1.57,6-1.71,16.58-.49,33.19-.79,49.79q-.4,22.41.92,44.8c.15,2.57.53,5.38-1.68,7.51-2.81-9.19-3.42-18.76-4.76-28.2-.15-1,.4-2.41-1.12-2.95v-5a1.3,1.3,0,0,0,0-2v-5a10.23,10.23,0,0,0,0-7v-6a7.65,7.65,0,0,0,0-6v-5c.62-.55.49-1.3.52-2s.1-1.45-.52-2Z" transform="translate(-50.9 -140.9)"/><path class="cls-4" d="M51,400a5.76,5.76,0,0,1,0,7Z" transform="translate(-50.9 -140.9)"/><path class="cls-5" d="M563,406a5.77,5.77,0,0,1,0-7Z" transform="translate(-50.9 -140.9)"/><path class="cls-6" d="M298,653a5.77,5.77,0,0,1,7,0Z" transform="translate(-50.9 -140.9)"/><path class="cls-7" d="M302,141a4.52,4.52,0,0,1-6,0Z" transform="translate(-50.9 -140.9)"/><path class="cls-7" d="M318,141a4.52,4.52,0,0,1-6,0Z" transform="translate(-50.9 -140.9)"/><path class="cls-8" d="M51,388a4.52,4.52,0,0,1,0,6Z" transform="translate(-50.9 -140.9)"/><path class="cls-9" d="M563,394a4.52,4.52,0,0,1,0-6Z" transform="translate(-50.9 -140.9)"/><path class="cls-6" d="M309,653a4.52,4.52,0,0,1,6,0Z" transform="translate(-50.9 -140.9)"/><path class="cls-10" d="M290,653c1-1.5,2-1.24,3,0Z" transform="translate(-50.9 -140.9)"/><path class="cls-10" d="M321,653c1-1.24,2-1.5,3,0Z" transform="translate(-50.9 -140.9)"/><path class="cls-10" d="M563,414c-1.29-.67-1.12-1.33,0-2Z" transform="translate(-50.9 -140.9)"/><path class="cls-11" d="M51,412c1.11.67,1.29,1.33,0,2Z" transform="translate(-50.9 -140.9)"/><path class="cls-12" d="M563,383c-1.09-.67-1.26-1.33,0-2Z" transform="translate(-50.9 -140.9)"/><path class="cls-13" d="M51.85,381c.15.86.08,1.63-.85,2v-2Q51.39,380.35,51.85,381Z" transform="translate(-50.9 -140.9)"/><path class="cls-14" d="M51.85,381,51,381v-2C52.08,379.3,52,380.13,51.85,381Z" transform="translate(-50.9 -140.9)"/><path class="cls-15" d="M292,141c-.67,1.14-1.33,1.27-2,0Z" transform="translate(-50.9 -140.9)"/><path class="cls-15" d="M324,141c-.67,1.27-1.33,1.14-2,0Z" transform="translate(-50.9 -140.9)"/><path class="cls-16" d="M541.83,499A163.09,163.09,0,0,1,525,531.09c-2.51-1.15-1.56-3.4-1.42-5.15,2.56-30.78,4.2-61.59,5.13-92.47.45-15.11.3-30.22.75-45.32a90.43,90.43,0,0,0,0-13.39c-1-11.25-6.93-18.28-18-20.91-2.13-.67-4.31-.43-6.47-.43q-72,0-144,0-32.47-.05-64.94,0-20.56-.05-41.11,0-73.46-.06-146.93,0a18.62,18.62,0,0,0-5.45.37c-14.15,4.17-19,11.73-18.11,28.51.13,7.83.08,15.66.07,23.49,0,23.46,1.14,46.9,2.22,70.32.76,16.26,1.82,32.54,3.54,48.76.26,2.47.56,5-1.49,7.05-5.88-10.83-12.47-21.31-16.69-33-1.79-16.23-2-32.54-2.87-48.82-1.71-33.48-.77-67-.69-100.44,0-19.45,1.31-38.91,2.56-58.35,1.4-21.77,3.37-43.49,5.23-65.22,1-11.26,4.38-20.8,14.58-26.9,6.1-3.65,12.92-4.19,19.73-4.74,18.42-1.47,36.86-2.62,55.29-3.8,13.78-.88,27.6-1.78,41.38-2,17.15-.29,34.27-1.75,51.44-1.27,18.49.52,36.94-1.77,55.44-.95,20.64.92,41.3.52,61.93,1.16,23.28.72,46.59,1.36,69.83,3,21.75,1.49,43.58,2.11,65.22,4.86,14.56,1.85,23.56,10.66,25.56,25.25,2.33,17,3.29,34.14,4.78,51.22,2,22.89,2.29,45.87,3.86,68.79.15,2.16.13,4.33.13,6.5,0,16.16-.08,32.33,0,48.49C545.79,430.15,545.05,464.6,541.83,499Z" transform="translate(-50.9 -140.9)"/><path class="cls-17" d="M541.83,499c-1.77-3.48-1-7.22-.68-10.75,1-11.91,1.35-23.83,2-35.76,1.68-33.11,1-66.24.73-99.35-.19-23.88-1.54-47.77-3-71.62-1.15-19-3.12-37.94-4.91-56.89-1.83-19.31-12.5-27.56-32.2-28.61-23.17-1.24-46.29-3.3-69.5-4.18-12.42-.47-24.84-1.23-37.26-1.86-20.78-1.05-41.61-.2-62.35-1.21-15.15-.73-30.3-1.14-45.37-.48-17.64.77-35.28,0-52.87.9-16.75.86-33.52,1-50.25,1.91-21.68,1.17-43.34,2.58-65,4a182.23,182.23,0,0,0-21.22,2.2c-13,2.42-21,13.62-22,28.29-.9,14-2.71,28-3.76,42-.73,9.75-1.3,19.5-2,29.25-.82,10.92-.58,21.92-1.19,32.86-1.93,34.6-1,69.24-.75,103.84.13,18.54.84,37.13,2.66,55.64.31,3.18,1,6.61-.7,9.74-6.91-15.7-12.61-31.77-15.28-48.8-1-24.75-1-49.52-.83-74.28.06-11.28.53-22.56.81-33.84.74-35.8,3.25-71.5,6.82-107.12.63-6.29.92-12.65,2.1-18.84,3.62-19,19.11-31.93,38.47-33.12,23.59-1.46,47.15-3.29,70.73-5,25.38-.94,50.75-2.09,76.14-2.75,17.29-.45,34.6-.26,51.91-.27,18.13,0,36.27-.15,54.4.2q31.88.62,63.74,2.09c6,.28,11.91.81,17.89.72,19.41,1.35,38.82,2.66,58.23,4.07,7.12.52,14.33.51,21.3,2.27A40.9,40.9,0,0,1,549,219.92c4.14,40.89,7.23,81.85,8.28,122.94.83,13.12.67,26.25.76,39.39.16,22.64-.21,45.26-.89,67.89-1.89,14-6.75,27.09-11.57,40.21C544.46,493.27,543.07,496.09,541.83,499Z" transform="translate(-50.9 -140.9)"/><path class="cls-18" d="M88.85,531.92c.33-10.5-1.55-20.85-2-31.31-.55-14.28-2-28.52-2.52-42.8-.9-25.59-1.87-51.19-1.21-76.81,1.14-9.62,7.87-13.77,16.2-15.67,7.28-1.67,14.81-.73,22.23-.53a3.65,3.65,0,0,1,3,1.51c1.15,2.17.91,4.53.94,6.84.16,12.13-.59,24.24-.86,36.36-.5,22.92,1.43,45.83,1,68.78-.17,8.43,1.76,10.73,9.48,13.74a7.61,7.61,0,0,1,3.39,2c1.1,1.8,1.08,3.82,1.09,5.81q.05,34.21,0,68.43a12.58,12.58,0,0,1-.71,4.91,2.6,2.6,0,0,1-2.19,1.54,44.08,44.08,0,0,0-7.89-.28c-2.63,0-5.3.21-7.63-1.39A9.72,9.72,0,0,1,117,569c-.91-1.42-2.06-2.65-3-4-8-7.38-14.14-16.3-20.09-25.33C92.17,537.1,90.52,534.5,88.85,531.92Z" transform="translate(-50.9 -140.9)"/><path class="cls-16" d="M136,573.83l2,0c4.72-2,9.55.46,14.31-.36,15.18.75,30.33,1.87,45.53,2.38,6.41,1.51,12.93.4,19.39.72,14.92,1.45,29.91.28,44.84,1.28,7.22,1.6,14.54.5,21.8.61,20.72.32,41.45.11,62.17.12a19.18,19.18,0,0,0,5.89-.72c9.79-.88,19.6-.36,29.4-.36,4.64,1.31,7.07,7.94,4.26,11.76-1.74,2.37-4,1-5.9.42-11.41-3.32-22.58-2.86-33.5,1.93-2.55,1.12-4.73,3.15-7.76,3.06-26.3-.24-52.61.44-78.89-.24-24.25-.62-48.52-1.18-72.76-2.6-14.6-.86-29.2-1.82-43.83-2.22-1.68,0-3.3-.34-5-.54a102.15,102.15,0,0,1-16.78-16l7.57.08C131.1,574.08,133.64,573,136,573.83Z" transform="translate(-50.9 -140.9)"/><path class="cls-17" d="M138,589.09c4-2.39,8.6-1.52,12.57-.83,7.76,1.34,15.55.57,23.31,1.49,10.51,1.25,21.22.71,31.83,1.3,43.2,2.4,86.44,2,129.67,2,1.3,0,2.71-.28,3.68,1a77.47,77.47,0,0,1-8.76,13c-18.3,0-36.6.17-54.89-.16q-36.37-.65-72.72-2c-16.24-.61-32.45-1.8-48.67-2.73A119.3,119.3,0,0,1,138,589.09Z" transform="translate(-50.9 -140.9)"/><path class="cls-19" d="M114,565c1.66.84,2.94,2,3,4C115.37,568.13,114.11,567,114,565Z" transform="translate(-50.9 -140.9)"/><path class="cls-18" d="M530.83,387c.47,25-.53,49.88-1.54,74.81-.75,18.61-2.13,37.17-3.31,55.75-.29,4.52-1.61,9-1,13.53-4.09,9.38-10.47,17.28-16.86,25.05-4.81,5.85-9,12.35-15.29,16.9-2.26,1.48-4.78,1.6-7.37,1.4-8.57-.23-9.07-.67-9.07-9.13q0-95.65,0-191.3c0-1.5,0-3,.16-4.49.26-3.18,2-4.9,5.14-5,10.32-.2,20.64-.54,30.95.2a22.54,22.54,0,0,1,11.45,4.59c4.41,3.15,6.79,7.17,6.41,12.71A11.28,11.28,0,0,0,530.83,387Z" transform="translate(-50.9 -140.9)"/><path class="cls-16" d="M486.17,573.09l6.68,0a101.85,101.85,0,0,1-16.8,16.05c-13,1.09-26.13,1.77-39.2,2.31-9.77.41-19.51,1.79-29.32,1.15-2.3-.15-4.68.18-6.73-1.29-2.06-4.37-1.85-8.78-.25-13.22,2.16-2,4.85-1.47,7.4-1.56,2.74-.1,5.52.4,8.19-.61,15.54-.57,31.05-1.63,46.58-2.42C470.53,572.64,478.36,573.67,486.17,573.09Z" transform="translate(-50.9 -140.9)"/><path class="cls-17" d="M401,591c19.26.6,38.41-1.81,57.64-2.17,5.84-.11,11.66-2,17.46.26a114.2,114.2,0,0,1-16,13L400.92,605A15.23,15.23,0,0,1,401,591Z" transform="translate(-50.9 -140.9)"/><path class="cls-20" d="M401,591a68,68,0,0,0,0,14c-1.2,15.72-7.66,23.25-23.42,27.14-12.65,3.12-24.78,1.88-36-5-7.49-4.55-11.81-11.07-11.21-20.22A27.3,27.3,0,0,1,339,594c14.3-9.3,29.47-10,46.2-4-1.78-4.14,2.18-8.48-2.71-11.36,1.85-10.2.72-20.5.93-30.75.17-8.45,0-16.91,0-25.37,0-9.43,2.06-11.91,11.3-13.92,1.13-.25,2.27-.49,3.41-.7,4.76-.68,9.39-2,14.07-3,8.75-2.06,17.54-3.9,26.33-5.73,9.66-2,13.75,1.4,13.83,11.27,0,3.49.07,7,0,10.48-.16,6.79-1.9,9.22-8.55,11-9.64,2.61-19.49,4.27-29.22,6.51l-2.91.7c-9.24,2.18-9.23,2.18-9.24,11.76,0,7,0,14,0,20.95,0,2.15.1,4.36-1.52,6.13A59.29,59.29,0,0,0,401,591Z" transform="translate(-50.9 -140.9)"/><path class="cls-17" d="M306.56,320H104.08c-8.69,0-16.55-4.74-17.65-11.81a60.67,60.67,0,0,1-.13-18.41c1-6.27,1-12.59,1.43-18.82,1.19-16.19,3-32.32,4.31-48.5.54-6.63,6.81-12,14.09-12.45,22-1.25,44-3.38,66-4.18q22.13-.8,44.26-2c45.91-2.47,91.84-2.05,137.77-1.66,20.91.18,41.85,1.17,62.76,2,18.05.71,36.09,2,54.15,2.91,12.57.62,25.11,1.86,37.65,3,7.72.67,12.72,6.56,13.34,14.27,1,12.7,2.53,25.35,3.77,38,.47,4.78.71,9.62.9,14.38.35,8.79,1.22,17.56,1.46,26.37.26,9.75-7.62,16.11-16.16,16.87-1.32.12-2.67,0-4,0Z" transform="translate(-50.9 -140.9)"/><path class="cls-21" d="M486.17,573.09A159.5,159.5,0,0,1,463,574.82c.86-66.52.15-133,.37-199.55,0-7.43-.21-7.62-7.46-7.65-7.48,0-15,0-22.45,0-2.31,0-4.69.17-6.71-1.36-1.92-3.44-1.16-7.15-.93-10.75.22-3.4,2.94-3,5.27-3,18,0,36-.07,54,0,9.31.05,18.63-.48,27.94.32,12.28,4,17.54,11,17.83,23.72.08,3.47,0,6.94,0,10.41a9.51,9.51,0,0,1-.77-2.29c-.8-11.17-8.59-18.53-20.07-18.68-8.82-.12-17.66.2-26.47-.12-4.34-.16-5.68,1-5.64,5.52.21,27.48.11,55,.11,82.43q0,55.2,0,110.41C478,572.67,478,572.67,486.17,573.09Z" transform="translate(-50.9 -140.9)"/><path class="cls-21" d="M123.83,366c-7,0-14-.41-20.93.09-9.58.68-16.26,5.8-19.74,14.88-.27-6.86.08-13.54,4.4-19.4A23.39,23.39,0,0,1,101,352.86c6.9-.78,13.82-.33,20.73-.28,5.16,0,3.08,4.38,3.73,7.07C125.51,361.92,125.8,364.26,123.83,366Z" transform="translate(-50.9 -140.9)"/><path class="cls-22" d="M124.16,360c-.5-7.27-.5-7.28-7.91-7.26-5.08,0-10.17.06-15.25.09,1.37-1.36,3.13-.93,4.74-.93q74.63,0,149.26,0a1.6,1.6,0,0,1-.74,1.62c-2.48,1.31-5.18,1-7.82,1q-34.87,0-69.74,0c-9.75,0-9.15.42-9.22,8.48a9,9,0,0,1-.39,2.45,4,4,0,0,1-.91,1.55c-3.43-.6-2.46-3.47-2.61-5.51-.51-7-.42-7-7.52-7-7.62,0-15.24.08-22.86,0-3.57-.06-6.66.22-7.51,4.53A1.48,1.48,0,0,1,124.16,360Z" transform="translate(-50.9 -140.9)"/><path class="cls-22" d="M513,352.87c-27.05,0-54.11,0-81.16-.18-3.81,0-5.51.82-4.94,4.9a78.6,78.6,0,0,1,.31,8.45c.68,1.19.72,2.27-.53,3.14-2.82-1.51-2.06-4.26-2.14-6.61-.27-8.05-.21-8.06-8.4-8.06-6.62,0-13.25.16-19.86-.06-4.26-.14-8.13.29-11.08,3.75-2-3.09-4.87-3.81-8.44-3.82-5.06,0-10.23,1-15.21-.88A1.43,1.43,0,0,1,361,352q73.63,0,147.26,0C509.87,351.94,511.63,351.5,513,352.87Z" transform="translate(-50.9 -140.9)"/><path class="cls-22" d="M361,352l.26,1.31a4.5,4.5,0,0,1-1.68.88c-13.15.79-26.32.3-39.48.3-7.8-.29-15.66,1.08-23.39-.87A1.58,1.58,0,0,1,296,352Z" transform="translate(-50.9 -140.9)"/><path class="cls-22" d="M296,352l.1,1.2-.73.58c-3.84,1.38-7.84.77-11.75.74-9.05-.06-18.11.48-27.16-.32a4.08,4.08,0,0,1-1.64-.9L255,352Z" transform="translate(-50.9 -140.9)"/><path class="cls-17" d="M124.16,360c1.89-7,1.89-7,9.88-7h22.37c8.49,0,8.45,0,8.64,8.26,0,1.94-.51,4,.78,5.79,2,1.78,1.71,4.23,1.72,6.51,0,34.58.12,69.16,0,103.75,0,12-4,16.5-15.3,18.15-4.76-.32-9.7,1.27-14.25-1.3-12.22-2.64-13.66-4.43-13.88-17-.61-35.38-1.08-70.76-.15-106.15,0-1.66-.07-3.31-.11-5Z" transform="translate(-50.9 -140.9)"/><path class="cls-21" d="M138,494.15h14a7.66,7.66,0,0,1,.61,3.9q-.07,36.45,0,72.91a7.74,7.74,0,0,1-.61,3.9c-4.74.57-9.39-.26-14-1Q138,534,138,494.15Z" transform="translate(-50.9 -140.9)"/><path class="cls-21" d="M136,573.83c-2.46.18-4.92.42-7.25-.69C131.2,573,133.71,572.31,136,573.83Z" transform="translate(-50.9 -140.9)"/><path class="cls-18" d="M152,574.84c-1.13-1.61-1-3.45-1-5.27q0-35.07,0-70.15c0-1.83-.11-3.66,1-5.28,12.07-2.65,13.56-4.4,13.77-16.67.64-36.81.9-73.61.06-110.42l.38-1c1.85-1.89,4.28-1.63,6.57-1.65,8.15-.07,16.31-.09,24.46,0,7.18.08,8.32,1.19,8.34,8.54.08,28,0,55.92,0,83.87q0,33.2,0,66.4a40.71,40.71,0,0,1-.37,8c-.58,2.69-2.81,3.54-5,4.23A33.78,33.78,0,0,0,189,541.68c-7.52,6.1-8.2,16.2-1.69,23.29a30.64,30.64,0,0,0,12.33,8.12c1.87.68,4.4.84,4.45,3.78-2.07,1.1-4.19.7-6.32.24C182.49,577.05,167.25,575.85,152,574.84Z" transform="translate(-50.9 -140.9)"/><path class="cls-18" d="M399,509a6.26,6.26,0,0,1-1.38.58c-15.26,2.47-12.71,5.92-12.74,16.48,0,15.79,0,31.59,0,47.38,0,2.11.47,4.43-2.4,5.21l-30.27.48c-1.92.42-3.83.83-5.66-.32-1.41-2.07-1.18-4.44-1.18-6.74q0-35.57,0-71.14c0-2.31-.16-4.67,1.08-6.79,1.26-1.5,3.11-1.8,4.84-2.35,6.31-2,7.59-4.08,8.14-10.82,1.84-22.39.67-44.81.94-67.21.17-13.62,0-27.23.05-40.85,0-2.46-.28-5,1.37-7.2a46.37,46.37,0,0,1,23.11-.17c1.56,1.56,1.55,3.61,1.58,5.59.08,6.81.43,13.64-.07,20.42a396.72,396.72,0,0,0,0,54.21,280.19,280.19,0,0,1,0,29.38c-.37,8.79,1.59,15.51,11.3,17.56a3.65,3.65,0,0,1,1.62,1.14C401.08,498.93,401.5,504,399,509Z" transform="translate(-50.9 -140.9)"/><path class="cls-18" d="M261.76,579.12c-14.92-.18-29.85.12-44.74-1.25a1.1,1.1,0,0,1,.43-1.51c2.19-1.34,4.72-1.57,7.15-2.08a36.81,36.81,0,0,0,13.26-5.59c5.83-3.94,8.75-9.24,8.72-16.39q-.14-29.48,0-59c0-6.54,2.64-8.45,9.21-7.23,2.77,3.35,6.09,5.77,10.55,6.43a4.15,4.15,0,0,1,3.54,2.3c1.23,8.66.61,17.34.4,26-.38,2.58-2.16,4.39-3.53,6.43-4.87,7.23-4.66,13.08.79,19.89,1.25,1.56,2.5,3.08,2.75,5.17.61,6.49.28,13,.27,19.48C270.56,579.69,270,580.08,261.76,579.12Z" transform="translate(-50.9 -140.9)"/><path class="cls-21" d="M261.76,579.12a18.79,18.79,0,0,1,3.45-.21c3.22.38,3.88-1.22,3.83-4.08-.13-7.93,0-15.87,0-23.8,5.2,1.89,10.93,2.85,14.22,8.12.57,3.8.27,7.62.33,11.42.1,6.41.42,6.81,6.72,6.85,14.59.1,29.18-.12,43.77.1,4.43.15,9-1.08,13.19,1.32l5,.28a9.74,9.74,0,0,1-1.91.43c-29,.65-58.1.7-87.14,0A6,6,0,0,1,261.76,579.12Z" transform="translate(-50.9 -140.9)"/><path class="cls-23" d="M217,577q0,.41,0,.83c-6.42,0-12.87.73-19.23-.76,2-.74,4.38.7,6.18-1.1C208.52,573.8,212.77,575.21,217,577Z" transform="translate(-50.9 -140.9)"/><path class="cls-18" d="M426.84,369l.37-3c10.66,0,21.33.18,32-.13,4.5-.13,5.91,1.06,5.9,5.77q-.25,86.71-.11,173.42c0,8.16,0,16.33,0,24.49,0,2.07,0,4-2,5.23-15.58,1-31.16,2.19-46.79,2.29-3.5,1.16-5.55-.07-5.67-3.78-.33-10.58-.29-21.17,0-31.76A5.68,5.68,0,0,1,412,538c9.79-3.13,20-4.48,30-6.92,8.07-2,9.1-3.18,9.1-11.55,0-3.5,0-7,0-10.49-.06-7.55-3.66-10.36-11.28-8.72-7.94,1.71-15.87,3.51-23.81,5.23-1.29.28-2.62.34-3.93.5-2.29-4.36-2.49-8.6.77-12.63,11.09-2.52,12.87-10.39,12.77-20.37-.33-31.94-.14-63.89-.09-95.83C425.47,374.42,424.86,371.48,426.84,369Z" transform="translate(-50.9 -140.9)"/><path class="cls-21" d="M412,538c0,11.44.14,22.88-.05,34.31-.05,3.31.76,5.06,4.27,4.84-5,1.49-10.16.65-15.25.87,0-10.59.22-21.19-.17-31.76-.18-5,1.12-7.54,6.36-7.5A28.86,28.86,0,0,0,412,538Z" transform="translate(-50.9 -140.9)"/><path class="cls-24" d="M413,494.13c-2,3.83-.59,7.93-1,11.89a52.86,52.86,0,0,1-13,3q0-7.42-.06-14.85A13.54,13.54,0,0,1,413,494.13Z" transform="translate(-50.9 -140.9)"/><path class="cls-16" d="M211.3,242c-29,0-58-.14-86.94.08-9,.07-12.88-7.79-10.25-12.9,1.58-3.07,3.74-5.25,7.71-5.24q89.19.1,178.38.06c5.72,0,8.68,3,8.81,8.52a8.92,8.92,0,0,1-8.78,9.42c-7.32.19-14.66.06-22,.06Z" transform="translate(-50.9 -140.9)"/><path class="cls-25" d="M153,277.77c0,3.83.14,7.66,0,11.48-.28,6.52-4.21,10.37-10.65,10.9a139.25,139.25,0,0,1-23.91,0c-6.47-.58-10.34-3.6-11-10.05a128.33,128.33,0,0,1,0-25.42c.64-6.28,4.37-9.32,10.55-9.9a124,124,0,0,1,24.4,0c6.5.67,10.2,4.42,10.57,11,0,.66,0,1.33,0,2q0,5,0,10Z" transform="translate(-50.9 -140.9)"/><path class="cls-25" d="M214,277.52c0,3.66.1,7.33,0,11-.27,7.47-4.06,11.11-11.44,11.7a140.88,140.88,0,0,1-22.91,0c-6.9-.57-10.93-3.87-11.29-10.8-.41-7.8-.39-15.65,0-23.45.33-7.21,4.2-10.51,11.45-11.19a122.48,122.48,0,0,1,23.9.08c6.17.63,9.9,4.44,10.33,10.71,0,.5,0,1,0,1.5Q214,272.27,214,277.52Z" transform="translate(-50.9 -140.9)"/><path class="cls-25" d="M274.94,277.59c0,3.83.16,7.66,0,11.48-.34,6.81-4.27,10.56-11,11.11a140,140,0,0,1-23.41,0c-6.69-.57-10.81-3.76-11.17-10.37a219.62,219.62,0,0,1,0-24.94c.38-6.45,4.32-9.49,10.86-10.1a123.39,123.39,0,0,1,23.9,0c6.56.67,10.38,4.27,10.75,10.81C275.12,269.59,274.94,273.59,274.94,277.59Z" transform="translate(-50.9 -140.9)"/><path class="cls-26" d="M434.25,276.75c6.16,2.82,8.68,7.33,7.73,13.81-.73,5-4.54,8.61-9.9,9.44a12,12,0,0,1-8.2-13.5C424.73,280.53,428.77,276.73,434.25,276.75Z" transform="translate(-50.9 -140.9)"/><path class="cls-26" d="M469.89,276.94c5.49,2.72,8.19,7.22,7.52,12.52-.71,5.6-3.94,9.19-9.44,10.49a11.22,11.22,0,0,1-9-9.94c-.63-4.37,2.15-10.62,5.66-12.6A5.47,5.47,0,0,1,469.89,276.94Z" transform="translate(-50.9 -140.9)"/><path class="cls-26" d="M505,276.88c5.39,2.6,8.4,7.35,7.85,12.37A11.89,11.89,0,0,1,503,300a12.22,12.22,0,0,1-8.72-12.84c.47-5.77,3.83-9.83,8.78-10.57A3,3,0,0,1,505,276.88Z" transform="translate(-50.9 -140.9)"/><path class="cls-27" d="M505,276.88c-4.49.28-7.32,2.88-8.69,6.89-1.51,4.42-1,8.74,2.31,12.32A55.3,55.3,0,0,0,503,300c-5.72,1.25-10.4-.59-13.27-5.21a12.43,12.43,0,0,1,.63-14C493.82,276.2,498.74,274.91,505,276.88Z" transform="translate(-50.9 -140.9)"/><path class="cls-27" d="M469.89,276.94c-5.09.56-8.11,3.42-9.45,9.29-1.13,4.92,1.05,8.69,4.67,11.78a29.55,29.55,0,0,0,2.86,1.94c-5.8,1.32-10.77-.64-13.63-5.39a12.92,12.92,0,0,1,.92-14C458.72,276.11,463.76,274.87,469.89,276.94Z" transform="translate(-50.9 -140.9)"/><path class="cls-28" d="M434.25,276.75c-4.78.76-7.33,3.94-8.73,8.23-1.53,4.7,0,8.7,3.22,12.17a34,34,0,0,0,3.34,2.84c-7.28,1.47-13.46-2.84-14.63-10.21A12.21,12.21,0,0,1,428.53,276C430.44,275.85,432.49,275.45,434.25,276.75Z" transform="translate(-50.9 -140.9)"/><path class="cls-21" d="M203.94,532.81q0-80.84.13-161.69c0-4.3-1.41-5.29-5.42-5.2-10.81.26-21.62.11-32.44.12-.72-13.28-.72-13.28,12.19-13.28q35.24,0,70.48,0c2,0,4-.34,5.93.49l.1-.24c2.76,5.4,2.32,13.11-.91,16.21a18,18,0,0,0-7.73-1.64q-11.24.09-22.47,0c-3.51,0-5.29,1.38-5.18,5,.05,1.83,0,3.66,0,5.49q0,72.41,0,144.82c0,3,.45,6-1,8.83C213.2,534.38,208.62,534.19,203.94,532.81Z" transform="translate(-50.9 -140.9)"/><path class="cls-17" d="M413,494.13l-14,0c-12.25-2.61-13.64-4.42-13.92-17-.83-37-.82-74.09-.24-111.14-1.6-2.73-1.94-5.41.35-8,.46-4.15,2.64-5.35,6.84-5.18,9.44.38,18.91.41,28.35,0,4.79-.21,5.92,1.51,5.72,5.89-.15,3.39-.77,6.94.76,10.26.78,37.13.59,74.26-.2,111.39C426.45,489.54,424.14,491.66,413,494.13Z" transform="translate(-50.9 -140.9)"/><path class="cls-21" d="M385.17,358.06l-.35,8-22.89,0a11.06,11.06,0,0,1-.81-13l.14.25c7.09-1.13,14.22-.34,21.34-.47C386.79,352.75,384.08,356.42,385.17,358.06Z" transform="translate(-50.9 -140.9)"/><path class="cls-17" d="M361.12,353l.81,13c.06,15.79.18,31.58.16,47.36,0,21.45.09,42.9-.72,64.35-.47,12.63-1.68,14.12-14.34,16.52-4.07,2.27-8.47,1-12.74,1.19-2.28-.07-4.5-.26-5.91-2.43-1-2.52-1.2-5,.55-7.3,1.68-1.1,3.52-.77,5.33-.54a51.46,51.46,0,0,0,7,.31c10.39-.09,10.83-.89,11.26-11,1.18-27.47.92-55,.92-82.44,0-8.82-1.35-17.6-1.12-26.44.1-3.79-2-5.83-5.87-5.94s-7.66-.06-11.5,0c-4.15,0-6,2.34-6.28,6.23-.14,1.83-.08,3.66-.12,5.5-.32,14.48.66,29-.89,43.45-.87,8.14.54,16.29.85,24.44.1,2.61.49,5.38-1.38,7.69A9.65,9.65,0,0,1,318,442c-.84-3.1-.58-6.28-.54-9.43.22-17.45-.57-34.91.4-52.35,1.4-5.2.54-10.5.69-15.75.11-3.87-1.09-8,1.54-11.51Z" transform="translate(-50.9 -140.9)"/><path class="cls-21" d="M320,353c-.49,9.09.4,18.22-.88,27.29-2.29-2.1-1.7-4.92-1.6-7.45.18-4.15-1.64-5.73-5.61-5.36-1.14.11-2.31,0-3.46,0-2.79.13-5.79-.73-8.31.59-2.84,1.5-1.18,4.85-2.12,7.21a3,3,0,0,1-1.47,1.89c-.44-.24-1-.39-1.13-.9-1.4-7.8-2.3-15.59.51-23.29l.11.17C304.08,352.4,312.06,352.73,320,353Z" transform="translate(-50.9 -140.9)"/><path class="cls-17" d="M296,353c.5,8.08-.36,16.21.85,24.26,1.9,1.61,1.73,3.86,1.73,6q.11,29.54,0,59.08a10.93,10.93,0,0,1-1,5.32c-2.67,2.44-5.61,3.25-9,1.42-1.33-1.91-1.27-4.11-1.09-6.26a310.57,310.57,0,0,0,0-48.37c-.62-8.63-.06-17.31-.18-26-.11-7.52-1.41-8.8-8.74-8.88-2.83,0-5.67-.12-8.49.05-4.8.28-6.49,1.62-6.46,6.38.06,10-1,19.95-1.11,29.93-.17,17.15,0,34.31-.06,51.46,0,2.49.22,5-.59,7.44-2.32,3-5.07,4-8.5,1.85-1.25-2.12-1.06-4.48-1.07-6.79q0-36.57,0-73.15c0-2.58-.51-5.38,1.74-7.48l.76-16.23Z" transform="translate(-50.9 -140.9)"/><path class="cls-16" d="M131,420.4q0-26.24,0-52.48c0-8.34,1.64-9.93,9.9-9.94,3.83,0,7.66,0,11.5,0,3.07,0,5.3,1.55,5.45,4.67.2,4.15,1.19,8.17,1.17,12.37-.14,27-.22,54,0,81,.08,8.67-1.17,17.24-1.06,25.88,0,2-.36,3.63-2.73,4.06-6.58,1.17-13.11,1.68-19.76.2-2.7-.6-3.28-1.9-3.63-4.38-1.68-12.1-.63-24.26-.88-36.38-.17-8.33,0-16.66,0-25Z" transform="translate(-50.9 -140.9)"/><path class="cls-20" d="M254.21,456.85l6.9-1.65c5.6-3.45,12.18-3.48,18.3-5.11,3.07-.82,6.24-2.25,9.6-1.09,2.72.31,5.17-1,7.79-1.3,7-3.54,14.38-5.61,22.35-4.7,2.55,1,5.09,1.92,7.09,3.89,3,1.44,3.68,4.27,3.92,7.08.8,9.45.38,18.92.26,28.39a5.33,5.33,0,0,1-1.47,3.62l0,7.14c1.55,2,1.51,4.34,1.51,6.68,0,9.83-.36,19.67.08,29.48.79,17.79-8.17,26.88-26.19,30.72-5.54,1.18-11.29.63-16.94.2a8.21,8.21,0,0,1-5.42-2.27c-4.49-2-9.1-3.79-13-6.89-1.83-2.72-4.59-4.68-5.85-7.89-3.37-8.57.45-15,6-21,3.32-4.54,8.56-5.7,13.39-7.59a44.27,44.27,0,0,1,24.6-.34c4.94,1.31,5.41.82,5.44-4.4.05-9.64.08-19.29,0-28.93,0-4.79-.61-5.17-5.31-4.37A95.64,95.64,0,0,0,296.53,479c-2.42.36-4.84.7-7.21,1.3-8.36,1.83-16.76,3.48-25.07,5.52-2.85.37-5.61,1.58-8.58,1-7.32.12-7.62.4-7.62,7.39q0,27.45,0,54.9c0,14.16-5.67,21.82-19.34,25.69-3.81,1.08-7.8,1.5-11.71,2.22l-13-1c-6.41-2.29-12.71-4.65-17.52-9.89-7.16-7.8-6.38-19.15,2-25.77a42,42,0,0,1,15.52-7.54c4.29-1.24,8.73-.64,13.09-1.05,3-2,6.1-.88,9.17-.24,4.8,1,5.25.74,5.27-4.13.07-17.32,0-34.64,0-52a37.81,37.81,0,0,1,.27-6.48c.9-5.18,3.6-9.05,8.83-10.41C245,457.39,249.42,455.34,254.21,456.85Z" transform="translate(-50.9 -140.9)"/><path class="cls-21" d="M334,494.18l13.06,0q.1,42.32.2,84.63l-13.33.1c-1.7-1.95-1.5-4.35-1.51-6.66q-.05-35.75,0-71.49C332.41,498.5,332.14,496.07,334,494.18Z" transform="translate(-50.9 -140.9)"/><path class="cls-21" d="M282,515.88a81.3,81.3,0,0,0-12.92,6.31q-.07-14-.14-28c4.32-2.8,8.76-2.24,13.24-.47C284.32,501.13,284.58,508.52,282,515.88Z" transform="translate(-50.9 -140.9)"/><path class="cls-29" d="M282,494.19l-13.06,0c-5.14-1.17-11-1.1-13.3-7.37a17.14,17.14,0,0,1,8.26-2c4.4.32,8.78.89,13.22.85,5.2,0,9.85-.78,11.87-6.5,2.32-.6,4.58-1.57,7.07-1.26,2.61,4.77,1.18,9.15-1.94,12.85S286.79,495.58,282,494.19Z" transform="translate(-50.9 -140.9)"/><path class="cls-18" d="M334,494.18q0,42.39-.07,84.77c-15.73,0-31.45-.08-47.17.1-3.64,0-5-.94-4.81-4.74.31-5.45.09-10.92.1-16.38,8.38,1.35,16.76,2,25.13,0a37,37,0,0,0,13-6.06c6.16-4.41,8.75-10.57,8.76-18q0-20.4.09-40.8Z" transform="translate(-50.9 -140.9)"/><path class="cls-30" d="M129.81,293c-3.66,0-7.33,0-11,0-2.38,0-3.54-1-3.9-3.51a82.86,82.86,0,0,1,0-23.81c.39-2.77,1.71-3.69,4.27-3.68,7.16,0,14.33.1,21.48,0,3.74-.07,5.17,2,5.24,5.22.16,6.83.14,13.66,0,20.48-.06,3.47-1.67,5.59-5.6,5.39-3.49-.18-7,0-10.49,0Z" transform="translate(-50.9 -140.9)"/><path class="cls-30" d="M190.75,293c-3.66,0-7.33,0-11,0-2.4,0-3.5-1.1-3.86-3.56a81.74,81.74,0,0,1,0-23.81c.35-2.43,1.36-3.62,3.8-3.62,7.49,0,15,0,22.48,0,3.58,0,4.63,2.39,4.7,5.23.16,6.82.15,13.66,0,20.48-.07,3.49-1.73,5.56-5.64,5.34-3.49-.19-7,0-10.49,0Z" transform="translate(-50.9 -140.9)"/><path class="cls-30" d="M251.61,293c-2.33,0-4.66,0-7,0-7.32,0-7.7,0-8.31-7.15a74.15,74.15,0,0,1,.56-20.39c.47-2.45,1.56-3.49,3.94-3.49,7.5,0,15,0,22.49,0,3.31,0,4.46,2.22,4.53,4.85.2,7,.18,14,0,21-.07,3.54-1.92,5.44-5.77,5.22-3.49-.2-7,0-10.49,0Z" transform="translate(-50.9 -140.9)"/><path class="cls-18" d="M254.21,456.85c-3.39.74-6.77,1.54-10.17,2.2-8.08,1.59-11,5.05-11,13.32,0,19.24-.1,38.49.07,57.73,0,4.1-.81,5.35-4.87,3.59-3.52-1.52-7.38-1.76-11.2-1.93q0-80.6-.11-161.19c0-3.37.82-4.72,4.44-4.64,9.48.22,19,.14,28.44,0,2.52,0,4.25.4,4.34,3.3q-.06,38.82-.11,77.64C254,450.21,254.15,453.53,254.21,456.85Z" transform="translate(-50.9 -140.9)"/><path class="cls-16" d="M392,421.44q0-26.74,0-53.48c0-8.37,1.63-10,9.86-10,3.83,0,7.66,0,11.5,0,3.07,0,5.17,1.52,5.52,4.64a124.19,124.19,0,0,1,1,13.37c.1,25.66-.12,51.32.15,77,.1,9.66-1.34,19.23-1.06,28.88.07,2.6-1,3.76-3.69,4.23a48.18,48.18,0,0,1-18.77,0c-2.33-.51-3.33-1.42-3.68-3.83a64.24,64.24,0,0,1-.89-9.39C392.05,455.76,392,438.6,392,421.44Z" transform="translate(-50.9 -140.9)"/><path class="cls-16" d="M328.94,486c-.07-9.73-.19-19.46-.18-29.2a17.41,17.41,0,0,0-2.52-9.89c1.3-1.62.88-3.57.68-5.3-1.84-16.25.09-32.49.06-48.73q0-13.24,0-26.48c0-6.56,1.85-8.38,8.18-8.4,4,0,8,0,12,0,4.47,0,6.66,2.07,6.85,6.62,1.28,30.09,1.27,60.2.73,90.3-.16,8.77-.59,17.57-.78,26.36-.06,2.82-1.1,4.28-4.29,4.94C342.69,487.66,335.85,486.91,328.94,486Z" transform="translate(-50.9 -140.9)"/><path class="cls-18" d="M319.15,443l-22.35,4.7q0-35.22,0-70.45l.11-.48c.75-3.36-1.5-7.85,1-10,2.78-2.32,7.29-.73,11-.78,9.84-.12,9.83,0,9.87,9.8,0,1.48.18,3,.28,4.43Q319.16,411.64,319.15,443Z" transform="translate(-50.9 -140.9)"/><path class="cls-16" d="M289,449a261.84,261.84,0,0,1-27.91,6.2c0-21.78-.47-43.58.13-65.34.23-8.43.62-16.88.75-25.33.07-4.26,2.12-6.49,6.4-6.52,4.66,0,9.32.11,14,0,4.26-.14,5.87,2.37,6.6,6a7,7,0,0,1,0,1.49c-.5,23.42,1.73,46.8,1,70.23C289.8,440.1,288.57,444.49,289,449Z" transform="translate(-50.9 -140.9)"/><path class="cls-18" d="M282,494.19c2.24-.46,4.52-.78,6.71-1.42,5.39-1.56,7.25-5.44,7.35-14.87,4.73-2.15,10-2.32,14.89-3.68,2.81-.78,2.87,1.27,2.87,3.22,0,12.11,0,24.22,0,36.34,0,3.12-1.19,3.7-4,2.74-9.2-3.14-18.51-3-27.85-.64Q282,505,282,494.19Z" transform="translate(-50.9 -140.9)"/><path class="cls-31" d="M289,479.16c.54,4.45-1.28,6.89-5.88,7.3-6.51.57-13.06,1.82-19.21-1.64C272.15,482.3,280.61,480.82,289,479.16Z" transform="translate(-50.9 -140.9)"/></svg>
