<svg id="Layer_1" data-name="Layer 1" xmlns="http://www.w3.org/2000/svg" viewBox="0 0 334.18 330.06"><defs><style>.cls-1{fill:#d9e2f2;}.cls-2{fill:#262626;}.cls-3{fill:#404040;}.cls-4{fill:#fecb98;}.cls-5{fill:#462300;}.cls-6{fill:#feb165;}.cls-7{fill:#d8d8d8;}.cls-8{fill:#462301;}.cls-9{fill:#feb265;}.cls-10{fill:#e78d74;}.cls-11{fill:#f8f8f8;}.cls-12{fill:#f7f7f7;}</style></defs><title>profile</title><path class="cls-1" d="M216.94,572.35c-5.23-2.12-9.66-5.53-14.18-8.78a133,133,0,0,1-16.63-14.34A167.53,167.53,0,0,1,159.47,515a172.53,172.53,0,0,1-15.59-35.14A164.4,164.4,0,0,1,137.73,451a157.77,157.77,0,0,1-1.3-26.94,177.4,177.4,0,0,1,3.78-29.51,165,165,0,0,1,15.74-42.73,169.43,169.43,0,0,1,54-60,165.39,165.39,0,0,1,48.2-22.36,172.46,172.46,0,0,1,26.4-5.17,42.53,42.53,0,0,1,8.81-.61c2-.64,4.21.22,6.25-.47h7.68c2,.69,4.2-.17,6.25.47a154.26,154.26,0,0,1,35,5.71,162.87,162.87,0,0,1,33.69,13.55,151.38,151.38,0,0,1,26.78,17.91c4.13,3.5,8.37,6.92,12.14,10.79A183.25,183.25,0,0,1,440,334.11a167.31,167.31,0,0,1,23.13,47,156.32,156.32,0,0,1,6,28.43,169,169,0,0,1,1.35,24.31,178,178,0,0,1-4,32.61A164.74,164.74,0,0,1,450.73,509a152.75,152.75,0,0,1-17.91,26.78c-3.33,4-6.61,8-10.29,11.63A126.68,126.68,0,0,1,407.28,560a184.72,184.72,0,0,1-18,11.32c-.89-1-.61-2.27-.61-3.44q0-17.13,0-34.25a44.53,44.53,0,0,0-33.77-42.79,69.14,69.14,0,0,0-9-1.51,3.15,3.15,0,0,1-1.39-.68c-5.66-8.46-14-12.73-23.58-15.14-1.27-.32-2.76-.31-3.51-1.74a5.25,5.25,0,0,1,0-3.37c.68-1,1.87-1.15,2.91-1.48C334,462.5,343.82,453.52,351,441.31a77.57,77.57,0,0,0,5.67-11.58,2.73,2.73,0,0,1,1-1.55c4.94,1.11,9.28.24,12.77-3.71a18.69,18.69,0,0,0,4.73-11.73c.37-7.23-2-13.3-8.2-17.5a2.29,2.29,0,0,1-1-1.26c.31-4.39,1.42-8.67,1.76-13.06a100.88,100.88,0,0,0,.76-10.51c-.13-5,.6-10,.13-15.07a139,139,0,0,0-1.84-15.69,3.75,3.75,0,0,1,1.62-4.31,25,25,0,0,0,6.63-6.86c1.69-2.71.93-4-2.21-4.09a23,23,0,0,0-5.42.92c-1,.22-2.27.76-2.89-.27s.45-1.91,1.07-2.72c1.45-1.91,3.05-3.7,4.32-5.75a20.57,20.57,0,0,0,2.17-4.27c.9-2.69.1-4.12-2.63-4.77a26,26,0,0,0-7.88-.35c-5.9.4-11.76,1.21-17.63,2s-11.61,1-17.43,1.38c-9.59.6-19.19.08-28.77.51-9.36.42-18.64,1.73-27.51,5C259,320.18,251,327.9,245.32,338.21a61.63,61.63,0,0,0-7.49,30.41c0,7.51-.12,15,.9,22.5a7.12,7.12,0,0,1-.08,2.39c-.24,1.13-1.17,1.64-2,2.24-9.58,6.87-10.11,22.43-.95,29.87,3,2.46,6.49,3.37,10.31,1.86a4.1,4.1,0,0,1,2.08-.48c1,.26,1.25,1.16,1.49,2a58.81,58.81,0,0,0,13,23.51,51.38,51.38,0,0,0,21.59,13.83c1,.36,2.21.54,2.81,1.67a5.81,5.81,0,0,1-.11,3.93c-.93,1.19-2.36,1.26-3.65,1.59-7.71,2-14.84,5-20.39,11a5.5,5.5,0,0,0-1.11,1.25c-1.54,3.33-4.47,4-7.75,4.65a44.31,44.31,0,0,0-36.32,44.07q0,17.26,0,34.51C217.64,570.11,218,571.39,216.94,572.35Z" transform="translate(-136.29 -263.21)"/><path class="cls-2" d="M338.43,589.57a140.06,140.06,0,0,1-24.14,3.3,187.34,187.34,0,0,1-44.34-2.36,7.26,7.26,0,0,1-1.11-.38,4.52,4.52,0,0,1-.77-3.19q0-47.48,0-95c0-3.33.59-3.94,3.93-3.92,4.63,0,9.27-.3,13.88.21,1.39.45,1.26,1.67,1.37,2.76a15.38,15.38,0,0,0,4.83,10.34,14.21,14.21,0,0,0,14.62,3.27,14.06,14.06,0,0,0,9.8-10.21,21.23,21.23,0,0,0,.67-4c.07-.89.2-1.77,1.23-2.12,6.07-.55,12.14-.24,18.21-.18a2.38,2.38,0,0,1,2.54,2.58c0,.88.06,1.76.06,2.64q0,45.93,0,91.86C339.21,586.68,339.55,588.27,338.43,589.57Z" transform="translate(-136.29 -263.21)"/><path class="cls-3" d="M286.52,488.83c-5,0-10.08.11-15.11-.07-2.23-.08-2.61.73-2.61,2.75q.08,49.31,0,98.62a130.45,130.45,0,0,1-20.68-4.8,167,167,0,0,1-29.63-12c-.55-.29-1.06-.67-1.59-1,0-12.39,0-24.77.09-37.16.21-19.48,9.06-33.65,26.54-42.31a37.67,37.67,0,0,1,12.84-3.6,4.45,4.45,0,0,0,3.72-2.33c4.17-6.64,10.79-10,17.88-12.53a56.19,56.19,0,0,1,8.54-2.32,2.85,2.85,0,0,1,.81,2.4q.09,6,0,11.94A2.8,2.8,0,0,1,286.52,488.83Z" transform="translate(-136.29 -263.21)"/><path class="cls-3" d="M338.43,589.57q0-49,0-98.08c0-2-.42-2.79-2.62-2.73-6,.16-12,.06-18,.07a2.78,2.78,0,0,1-.82-2.38q-.09-5.93,0-11.86a2.81,2.81,0,0,1,.81-2.38c7.1,1.48,13.83,3.86,19.76,8.16a24.25,24.25,0,0,1,7.11,8c-1.26,1.8-1.23,3.85-1.23,5.93q0,24.69,0,49.38c0,1.08-.26,2.23.57,3.44,1-1,.74-2.24.74-3.33q0-25.41,0-50.82c0-1.4-.34-2.91.84-4.09,24.17,1,43,20,43.51,44.17.28,12.76,0,25.54,0,38.31a179.9,179.9,0,0,1-49.66,18.13A8.67,8.67,0,0,1,338.43,589.57Z" transform="translate(-136.29 -263.21)"/><path class="cls-4" d="M357.64,428.37C351.88,444.29,342.56,457.25,327,465a33,33,0,0,1-9.2,3.22c-.62,1.12-1.76,1.29-2.85,1.53-8.76,1.88-17.46,1.27-26.11-.72a3.83,3.83,0,0,1-2.24-1.29c-16.8-4.93-28.33-15.67-35.18-31.69-1.22-2.86-1.83-5.92-3.27-8.69-1.39-1.51-1.47-3.52-1.89-5.35a91.12,91.12,0,0,1-2.36-16.57c4.76-5.61,5.46-12.59,6.58-19.43a58.21,58.21,0,0,1,4.24-15.43A23.34,23.34,0,0,1,266.37,359a10.93,10.93,0,0,1,7.88-.8A263.54,263.54,0,0,0,307.32,365c8.55,1.15,17.15,1.76,25.72,2.67a82.51,82.51,0,0,1,8.31,1.06c7,1.47,11.61,5.74,14.11,12.34a42.28,42.28,0,0,1,2.33,13.64c.09,2.48.36,4.93.6,7.39.21,2.08,1.08,3.66,3.22,4.29,1.13,1.33.59,2.89.42,4.31a121.52,121.52,0,0,1-2.5,14.26C359.21,426.27,359.08,427.69,357.64,428.37Z" transform="translate(-136.29 -263.21)"/><path class="cls-5" d="M361.48,406.71c-2.15.29-3-1-3.41-2.81-1.07-4.71-.72-9.55-1.37-14.3S355,380,352,376c-3.56-4.81-8.63-6.56-14.32-7.16-10.33-1.09-20.69-1.84-31-3.22a279.27,279.27,0,0,1-33.72-7.05,6.79,6.79,0,0,0-4.19.17c-9.67,3.39-14.05,10.94-16.24,20.31-1.47,6.3-1.83,12.8-3.75,19a16,16,0,0,1-4.4,7.26c-1.37,1.57-2.2,1.68-3.24,0-2.1-3.42-3.39-7.13-2.86-11.26-1.1-11.23-1.95-22.52-.54-33.74,2.34-18.7,10.66-33.82,27.85-43,6.93-3.69,14.62-4.94,22.29-6.06a108.22,108.22,0,0,1,17-1,321.5,321.5,0,0,0,49.23-3.1c3.94-.56,8-.5,12-.71a11.59,11.59,0,0,1,1.68.06c5.58.52,6.91,2.87,4.28,7.78a50.33,50.33,0,0,1-3.51,5.42c-1.25,1.74-2.63,3.39-4.35,5.58,2.19-.48,3.9-.8,5.58-1.22a14.29,14.29,0,0,1,4.28-.39c2.55.14,3.48,1.54,2.38,3.85a21.43,21.43,0,0,1-8.06,8.66c-1,.64-1.42,1.09-1.12,2.39,2.8,12,2.4,24.27,1.76,36.49a143.73,143.73,0,0,1-2.57,19.21C366.15,399,365.11,403.35,361.48,406.71Z" transform="translate(-136.29 -263.21)"/><path class="cls-6" d="M286.61,467.7A64.35,64.35,0,0,0,307.33,470a35.78,35.78,0,0,0,10.49-1.86l.06,4q0,8.31,0,16.62c0,6.22-2,11.52-7.51,14.86-10.18,6.16-22.67-.33-23.7-12.23-.08-.87-.1-1.75-.14-2.63q0-8.37,0-16.74Z" transform="translate(-136.29 -263.21)"/><path class="cls-6" d="M238.26,394c.71,3.48,1.1,7.05,2.82,10.25.74,1.38,1.63,2.45,3.28,1a170,170,0,0,0,3.81,22c-8.05,3.1-14.63.15-18-8-3.28-8-1.61-16.94,4.16-22.55A30.26,30.26,0,0,1,238.26,394Z" transform="translate(-136.29 -263.21)"/><path class="cls-6" d="M361.48,406.71c2.78-3.7,3.64-8.14,4.88-12.44,6.88,3.51,10.87,12.39,9.26,20.56-.83,4.23-2.36,8.11-5.64,11.07-3.61,3.24-7.67,4.42-12.34,2.47,2-4.82,2.48-10,3.34-15.08A22.6,22.6,0,0,0,361.48,406.71Z" transform="translate(-136.29 -263.21)"/><path class="cls-7" d="M345.73,488.86q0,13.42-.09,26.84,0,15.34,0,30.68c0,1,.24,2-1.47,2s-1.41-1.08-1.41-2.06c0-18.53,0-37.07-.08-55.6,0-1.82,1.18-1.77,2.06-2.38Z" transform="translate(-136.29 -263.21)"/><path class="cls-7" d="M263.08,524.1q0,15.84,0,31.68c0,1,.45,2.25-1.5,2.21-1.79,0-1.37-1.15-1.37-2.1q0-32,0-64.07c0-.95-.41-2.06,1.37-2.09,1.94,0,1.49,1.2,1.49,2.22Q263.09,508,263.08,524.1Z" transform="translate(-136.29 -263.21)"/><path class="cls-3" d="M279.87,407c0,4.08-3,7.47-6.52,7.43s-6.47-3.45-6.42-7.53,2.94-7.28,6.4-7.33S279.87,402.92,279.87,407Z" transform="translate(-136.29 -263.21)"/><path class="cls-3" d="M338.43,407.09c0,4.09-3,7.41-6.4,7.3s-6.15-3.55-6.06-7.64,3-7.23,6.28-7.2S338.48,403,338.43,407.09Z" transform="translate(-136.29 -263.21)"/><path class="cls-5" d="M283.7,388.73c.05.83-.19,1.22-1.25.92a38.46,38.46,0,0,0-17.77-.71c-1.89.34-1.83-.9-1.34-2a8.35,8.35,0,0,1,7-5.49,19.66,19.66,0,0,1,8.73,1C281.61,383.36,283.76,386.39,283.7,388.73Z" transform="translate(-136.29 -263.21)"/><path class="cls-8" d="M331.82,381.34c4.7-.08,7.77,1.79,9.15,5.2a2.28,2.28,0,0,1,.19,2.06c-.47.76-1.31.37-2,.25a34.32,34.32,0,0,0-16.07.65c-2,.61-2.24-.26-1.81-1.81a7.48,7.48,0,0,1,5.17-5.47A24.16,24.16,0,0,1,331.82,381.34Z" transform="translate(-136.29 -263.21)"/><path class="cls-9" d="M302.54,435.05c-2.14-.19-5,0-7.33-1.92a4.64,4.64,0,0,1-1.45-1.55c-.28-.58-.64-1.2-.28-1.81.46-.79,1.11-.21,1.69-.11a47,47,0,0,0,14.24.25c.55-.07,1.16-.31,1.5.32s0,1.2-.36,1.75C308.93,434.18,306.85,435.06,302.54,435.05Z" transform="translate(-136.29 -263.21)"/><path class="cls-10" d="M318.36,443.81c-6.15,6.91-27.65,5.41-32.44-.25C297,446.67,307.68,447.87,318.36,443.81Z" transform="translate(-136.29 -263.21)"/><path class="cls-11" d="M270.92,401.95c1,.13,1.69.64,1.72,1.66a1.63,1.63,0,0,1-3.26.15C269.27,402.72,270,402.19,270.92,401.95Z" transform="translate(-136.29 -263.21)"/><path class="cls-12" d="M329.26,402.42c1.06.13,1.93.58,1.92,1.71s-.86,1.64-1.94,1.61a1.63,1.63,0,0,1-1.78-1.54C327.4,403,328.26,402.59,329.26,402.42Z" transform="translate(-136.29 -263.21)"/></svg>
