<svg id="Capa_1" enable-background="new 0 0 512 512" height="512" viewBox="0 0 512 512" width="512" xmlns="http://www.w3.org/2000/svg"><path d="m403.19 188.14-74.95 85.27-72.24-7.81-126.64-13.7 40.26-45.94c1.17-1.34 2.37-2.64 3.61-3.9l82.77-5.01z" fill="#f3eee9"/><path d="m403.19 188.14-74.95 85.27-72.24-7.81v-68.55z" fill="#e9dfda"/><path d="m453.19 346.81v42.16h-374.55l-22.26-121.36c-.93-5.13.46-10.38 3.81-14.4 3.35-4.01 8.26-6.31 13.49-6.31h161.07c7.13 0 14.24.61 21.25 1.82 4.17.72 8.29 1.65 12.37 2.79l142.74 39.84c24.78 6.91 42.08 29.72 42.08 55.46z" fill="#00465f"/><path d="m453.19 346.81v42.16h-197.19v-140.25c4.17.72 8.29 1.65 12.37 2.79l142.74 39.84c24.78 6.91 42.08 29.72 42.08 55.46z" fill="#001e2a"/><path d="m512 360.53v101.5c-1.35 25.45-23.04 34.98-49.43 34.98-13.37 0-25.52-5.4-34.43-14.15-8.9 8.75-21.05 14.15-34.43 14.15-13.37 0-25.52-5.4-34.42-14.15-8.91 8.75-21.06 14.15-34.43 14.15-13.38 0-25.52-5.4-34.43-14.15-8.91 8.75-21.06 14.15-34.43 14.15s-25.52-5.4-34.43-14.15c-8.91 8.75-21.05 14.15-34.43 14.15-13.37 0-25.52-5.4-34.43-14.15-8.9 8.75-21.05 14.15-34.42 14.15-13.38 0-25.53-5.4-34.43-14.15-8.91 8.75-21.06 14.15-34.43 14.15-26.39 0-48.08-9.53-49.43-34.98v-101.5c13.2-15.09 30 1.91 30 14.98 0 11.03 8.72 20.01 19.43 20.01 10.56 0 19.18-8.73 19.42-19.54.19-8.24 6.47-15.29 14.72-15.45 8.41-.16 15.29 6.61 15.29 14.98 0 11.03 8.71 20.01 19.43 20.01 10.57 0 19.2-8.75 19.42-19.58.15-7.85 5.85-14.69 13.68-15.36 8.89-.75 16.32 6.23 16.32 14.93 0 11.03 8.72 20.01 19.43 20.01 10.58 0 19.21-8.75 19.43-19.58.15-7.85 5.85-14.69 13.68-15.36 8.89-.75 16.32 6.23 16.32 14.93 0 11.03 8.72 20.01 19.43 20.01 10.56 0 19.18-8.73 19.42-19.54.19-8.24 6.47-15.29 14.72-15.45 8.41-.16 15.29 6.61 15.29 14.98 0 11.03 8.71 20.01 19.43 20.01 10.71 0 19.43-8.98 19.43-20.01 0-8.7 7.43-15.68 16.32-14.93 7.83.67 13.53 7.51 13.68 15.36.22 10.83 8.85 19.58 19.42 19.58 10.58 0 19.21-8.75 19.43-19.58.15-7.85 5.85-14.69 13.68-15.36 8.89-.75 16.32 6.23 16.32 14.93 0 11.03 8.72 20.01 19.43 20.01s19.43-8.98 19.43-20.01c0-13.07 16.8-30.07 30-14.98z" fill="#c0f6ff"/><g fill="#75eeff"><path d="m512 360.53v101.5c-1.35 25.45-23.04 34.98-49.43 34.98-13.37 0-25.52-5.4-34.43-14.15-8.9 8.75-21.05 14.15-34.43 14.15-13.37 0-25.52-5.4-34.42-14.15-8.91 8.75-21.06 14.15-34.43 14.15-13.38 0-25.52-5.4-34.43-14.15-8.91 8.75-21.06 14.15-34.43 14.15v-101.49c10.56 0 19.18-8.73 19.42-19.54.19-8.24 6.47-15.29 14.72-15.45 8.41-.16 15.29 6.61 15.29 14.98 0 11.03 8.71 20.01 19.43 20.01 10.71 0 19.43-8.98 19.43-20.01 0-8.7 7.43-15.68 16.32-14.93 7.83.67 13.53 7.51 13.68 15.36.22 10.83 8.85 19.58 19.42 19.58 10.58 0 19.21-8.75 19.43-19.58.15-7.85 5.85-14.69 13.68-15.36 8.89-.75 16.32 6.23 16.32 14.93 0 11.03 8.72 20.01 19.43 20.01s19.43-8.98 19.43-20.01c0-13.07 16.8-30.07 30-14.98z"/><path d="m512 360.53c0 27.55-22.17 49.97-49.43 49.97-13.37 0-25.52-5.39-34.43-14.14-8.9 8.75-21.05 14.14-34.43 14.14-13.37 0-25.52-5.39-34.42-14.14-8.91 8.75-21.06 14.14-34.43 14.14-13.38 0-25.52-5.39-34.43-14.14-8.91 8.75-21.06 14.14-34.43 14.14s-25.52-5.39-34.43-14.14c-8.91 8.75-21.05 14.14-34.43 14.14-13.37 0-25.52-5.39-34.43-14.14-8.9 8.75-21.05 14.14-34.42 14.14-13.38 0-25.53-5.39-34.43-14.14-8.91 8.75-21.06 14.14-34.43 14.14-27.26 0-49.43-22.42-49.43-49.97 0-8.27 6.72-14.99 15-14.99s15 6.72 15 14.99c0 11.03 8.72 20 19.43 20s19.43-8.97 19.43-20c0-8.27 6.71-14.99 15-14.99 8.28 0 15 6.72 15 14.99 0 11.03 8.71 20 19.43 20 10.71 0 19.42-8.97 19.42-20 0-8.27 6.72-14.99 15-14.99 8.29 0 15 6.72 15 14.99 0 11.03 8.72 20 19.43 20 10.72 0 19.43-8.97 19.43-20 0-8.27 6.72-14.99 15-14.99 8.29 0 15 6.72 15 14.99 0 11.03 8.72 20 19.43 20s19.43-8.97 19.43-20c0-8.27 6.71-14.99 15-14.99 8.28 0 15 6.72 15 14.99 0 11.03 8.71 20 19.43 20 10.71 0 19.43-8.97 19.43-20 0-8.27 6.71-14.99 15-14.99 8.28 0 15 6.72 15 14.99 0 11.03 8.71 20 19.42 20 10.72 0 19.43-8.97 19.43-20 0-8.27 6.72-14.99 15-14.99 8.29 0 15 6.72 15 14.99 0 11.03 8.72 20 19.43 20s19.43-8.97 19.43-20c0-8.27 6.72-14.99 15-14.99s15 6.72 15 14.99z"/><path d="m512 462.03c0 27.55-22.17 49.97-49.43 49.97-13.37 0-25.52-5.4-34.43-14.16-8.9 8.76-21.05 14.16-34.43 14.16-13.37 0-25.52-5.4-34.42-14.16-8.91 8.76-21.06 14.16-34.43 14.16-13.38 0-25.52-5.4-34.43-14.16-8.91 8.76-21.06 14.16-34.43 14.16s-25.52-5.4-34.43-14.16c-8.91 8.76-21.05 14.16-34.43 14.16-13.37 0-25.52-5.4-34.43-14.16-8.9 8.76-21.05 14.16-34.42 14.16-13.38 0-25.53-5.4-34.43-14.16-8.91 8.76-21.06 14.16-34.43 14.16-27.26 0-49.43-22.42-49.43-49.97 0-8.28 6.72-14.99 15-14.99s15 6.71 15 14.99c0 11.03 8.72 20 19.43 20s19.43-8.97 19.43-20c0-8.28 6.71-14.99 15-14.99 8.28 0 15 6.71 15 14.99 0 11.03 8.71 20 19.43 20 10.71 0 19.42-8.97 19.42-20 0-8.28 6.72-14.99 15-14.99 8.29 0 15 6.71 15 14.99 0 11.03 8.72 20 19.43 20 10.72 0 19.43-8.97 19.43-20 0-8.28 6.72-14.99 15-14.99 8.29 0 15 6.71 15 14.99 0 11.03 8.72 20 19.43 20s19.43-8.97 19.43-20c0-8.28 6.71-14.99 15-14.99 8.28 0 15 6.71 15 14.99 0 11.03 8.71 20 19.43 20 10.71 0 19.43-8.97 19.43-20 0-8.28 6.71-14.99 15-14.99 8.28 0 15 6.71 15 14.99 0 11.03 8.71 20 19.42 20 10.72 0 19.43-8.97 19.43-20 0-8.28 6.72-14.99 15-14.99 8.29 0 15 6.71 15 14.99 0 11.03 8.72 20 19.43 20s19.43-8.97 19.43-20c0-8.28 6.72-14.99 15-14.99s15 6.71 15 14.99z"/></g><path d="m512 462.03c0 27.55-22.17 49.97-49.43 49.97-13.37 0-25.52-5.4-34.43-14.16-8.9 8.76-21.05 14.16-34.43 14.16-13.37 0-25.52-5.4-34.42-14.16-8.91 8.76-21.06 14.16-34.43 14.16-13.38 0-25.52-5.4-34.43-14.16-8.91 8.76-21.06 14.16-34.43 14.16v-29.97c10.71 0 19.43-8.97 19.43-20 0-8.28 6.71-14.99 15-14.99 8.28 0 15 6.71 15 14.99 0 11.03 8.71 20 19.43 20 10.71 0 19.43-8.97 19.43-20 0-8.28 6.71-14.99 15-14.99 8.28 0 15 6.71 15 14.99 0 11.03 8.71 20 19.42 20 10.72 0 19.43-8.97 19.43-20 0-8.28 6.72-14.99 15-14.99 8.29 0 15 6.71 15 14.99 0 11.03 8.72 20 19.43 20s19.43-8.97 19.43-20c0-8.28 6.72-14.99 15-14.99s15 6.71 15 14.99z" fill="#00d9eb"/><path d="m290.43 396.36c-8.91 8.75-21.06 14.14-34.43 14.14v-29.97c10.71 0 19.43-8.97 19.43-20 0-8.27 6.71-14.99 15-14.99 8.28 0 15 6.72 15 14.99 0 11.03 8.71 20 19.43 20 10.71 0 19.43-8.97 19.43-20 0-8.27 6.71-14.99 15-14.99 8.28 0 15 6.72 15 14.99 0 11.03 8.71 20 19.42 20 10.72 0 19.43-8.97 19.43-20 0-8.27 6.72-14.99 15-14.99 8.29 0 15 6.72 15 14.99 0 11.03 8.72 20 19.43 20s19.43-8.97 19.43-20c0-8.27 6.72-14.99 15-14.99s15 6.72 15 14.99c0 27.55-22.17 49.97-49.43 49.97-13.37 0-25.52-5.39-34.43-14.14-8.9 8.75-21.05 14.14-34.43 14.14-13.37 0-25.52-5.39-34.42-14.14-8.91 8.75-21.06 14.14-34.43 14.14-13.38 0-25.52-5.39-34.43-14.14z" fill="#00d9eb"/><path d="m92.22 46.16c0 25.45-20.68 46.15-46.11 46.15-25.42 0-46.11-20.7-46.11-46.15s20.69-46.16 46.11-46.16c25.43 0 46.11 20.71 46.11 46.16z" fill="#ffe875"/><path d="m61.11 127.53v23.67c0 8.28-6.72 15-15 15s-15-6.72-15-15v-23.67c0-8.28 6.72-15 15-15s15 6.72 15 15z" fill="#ffd500"/><path d="m130.882 61.157h23.633c8.284 0 15-6.716 15-15s-6.716-15-15-15h-23.633c-8.284 0-15 6.716-15 15s6.716 15 15 15z" fill="#ff9533"/><path d="m113.624 134.663c2.93 2.934 6.771 4.4 10.614 4.4 3.835 0 7.672-1.462 10.6-4.386 5.862-5.854 5.868-15.352.014-21.213l-16.712-16.733c-5.854-5.861-15.352-5.868-21.213-.014-5.862 5.854-5.868 15.352-.014 21.213z" fill="#ff9533"/><path d="m391.44 103.06c0 8.28-6.72 15-15 15h-110.57c-22.8 0-41.35-18.56-41.35-41.38s18.55-41.39 41.35-41.39c8.28 0 15 6.72 15 15 0 8.29-6.72 15-15 15-6.26 0-11.35 5.11-11.35 11.39 0 6.27 5.09 11.38 11.35 11.38h110.57c8.28 0 15 6.72 15 15z" fill="#f3eee9"/><path d="m442.466 118.061c8.284 0 15-6.716 15-15s-6.716-15-15-15h-15.968c-8.284 0-15 6.716-15 15s6.716 15 15 15z" fill="#e9dfda"/><path d="m396.421 65.294h100.364c8.284 0 15-6.716 15-15s-6.716-15-15-15h-100.364c-8.284 0-15 6.716-15 15s6.716 15 15 15z" fill="#e9dfda"/><path d="m366.59 50.29c0 8.29-6.71 15-15 15h-15.97c-8.28 0-15-6.71-15-15 0-8.28 6.72-15 15-15h15.97c8.29 0 15 6.72 15 15z" fill="#f3eee9"/><path d="m469.9 187.06c0 8.28-6.71 15-15 15h-281.67c18.64-19.13 44.28-30 71.13-30h210.54c8.29 0 15 6.71 15 15z" fill="#e9dfda"/><path d="m469.9 187.06c0 8.28-6.71 15-15 15h-198.9v-30h198.9c8.29 0 15 6.71 15 15z" fill="#dad0cb"/><path d="m61.11 127.53v23.67c0 8.28-6.72 15-15 15v-53.67c8.28 0 15 6.72 15 15z" fill="#ff9533"/><path d="m92.22 46.16c0 25.45-20.68 46.15-46.11 46.15v-92.31c25.43 0 46.11 20.71 46.11 46.16z" fill="#ffd500"/><path d="m351.59 65.29h-7.98v-30h7.98c8.29 0 15 6.72 15 15 0 8.29-6.71 15-15 15z" fill="#e9dfda"/><path d="m391.44 103.06c0 8.28-6.72 15-15 15h-32.83v-30h32.83c8.28 0 15 6.72 15 15z" fill="#e9dfda"/></svg>